<svg width="110" height="110" viewbox="0 0 110 110" xmlns="http://www.w3.org/2000/svg">
    <path class="uk-fill-primary" fill="#c6e3f7" d="M105 38c-6.7-4-13.5-6.7-20.7-9.7-8.4-3.6-16.8-7.2-25.3-10.8-.9-.4-1.8-.4-2.6-.3 0-2.5-1.9-4.9-4.8-3.8-7.9 3.1-15.2 7.4-21.4 13.2-6 5.6-10.5 12.7-16.9 17.9C9.1 47.9-.4 50.9.3 57.9c.6 6.5 9.2 8.8 15.7 10.5 1.5.4 3 .8 4.5 1.1-1.3 6.7 3.6 13.6 9.6 16.9 9.6 5.3 22.4 8.7 33.4 7.8 9.7-.8 20.4-5.4 25.9-13.7 1.3-2 2.3-4.2 2.7-6.6.4-2-.2-4.1.2-5.9 5.8-5.2 10.9-9.8 15.6-16.1C111 48 110 41 105 38zM85.3 62.8c-.3 3.3-.8 9-.8 12.1-5.6 4.5-9.4 7.7-17 9.7-8.5 2.2-16.5.3-24.7-2.3-5.4-2.4-10.6-5.4-13.6-8.5 0-2.9.2-6.9.2-10.3-2.9-.9-16.1-5.7-20.2-7.8 4.2-4.3 42.9-29 45.8-31.3 6.2 4.5 23.1 8.7 36.5 15.5 2.9 1.2 9.6 3.7 11.7 6.1-3.1 3.3-17.5 16.3-17.9 16.8z"/>
    <path class="uk-fill-default" opacity=".04" d="M72.7 53.1c-2.1-3.7-17.4-19.9-23.8-24.2-3.2 2-17.5 11.5-21.5 14.3-5.7 4.1-14 8.6-18.3 12.8 5.8 2.8 14.8 5.8 20.2 7.8.2 2.1.1 7.3-.2 10.1-.1 1.3 15.2 13 33.6 11.8 4.1-.3 16.4-4.6 21.2-10.6.5-4.8 1.4-12.4 1.4-12.4l-6.5 4.9c.6-.5-6.1-14.5-6.1-14.5zm-15.4-5.4c-2.4.4-4.9 1.8-7.1 2.7-2.4 1-4.4 2.2-6.5 3.8-4.5 3.3-6.9 8.7-7.9 14.2-.1.6-1.1.4-1-.3 1-5.2 3.3-11 7.6-14.3 2.4-1.8 4.5-3.2 7.3-4.3 2.3-1 4.8-2.4 7.3-2.8.7 0 1 .9.3 1z"/>
    <path class="uk-fill-default" opacity=".16" d="M82.9 63.8c-2.8 3.1-16 12.4-18.6 14.2 0-.1-1.4-1.1-4.3-2.2 1.7 0 2.8-1.8.7-2.7-6-2.8-10.1-4.7-16.2-7.5-.2-.1-1.2-.5-1.4-.5 4.5-5.6 9.4-10.6 16.1-13 1.8-.6.5-3.7-1.3-3.1-8.5 3.1-15.1 9.5-20.4 16.7-.3.4-1 3.2-1.2 3.1-.2-.1-1.2-.1-1.4-.2-.3-.1.3-2.7 1.6-6.2-3.5-.5-6.5-1.4-9.7-3l-1.7-1.1c-2.5-1.8-6.4-5.1-6.3-8.5 0-1.2-2.9.9-4 1.6-.4.3-5.4 4.2-5.8 4.6.6.4 4.6 2 4.6 2 4.4 1.8 8.7 3.5 13.2 5.1.1.1.3.1.4.1.8.5 1.6.9 2.4 1.3-.1.2-.2.5-.2.7-.1 2.7-.1 5.4-.2 8 0 .6.3 1 .7 1.3 0 0 9 5.9 9.4 5.9.5.9 2 .9 2.7 0 .8-1.1 1.6-2.3 2.4-3.4 1.2-.6 2.5-.8 3.8-.8h1.1c5 2.5 10.2 4.5 15.8 4.3.4.2.9.2 1.4-.1 7.4-.8 18.2-14.1 18.6-14.5 1.3-1.4-.9-3.5-2.2-2.1z"/>
    <path class="uk-fill-default" opacity=".9" d="M103.2 45.3c-3.1-3.2-8.5-4.3-12.5-5.9-4.6-1.9-9.2-3.9-13.8-5.8-4.6-1.9-9.3-3.4-13.8-5.3-2.2-.9-4.4-2-6.5-3.3-.4-.3-1.1-.9-1.6-.9-.7 0-2.1 1.2-2.8 1.5-7 4.2-13.7 9-20.4 13.5-3.4 2.3-6.8 4.7-10.2 7-2.4 1.6-4.7 3.2-7 4.9-2 1.4-4.3 2.9-5.8 4.9 2.2 1.2 4.6 2.1 6.9 3 2.9 1.2 5.9 2.3 8.8 3.4 1.1.4 2.3.9 3.4 1.3.2.1.9.2 1.1.4.4.4.1 1.4.1 1.9l-.6 5.3c-.1 1-.4 2.2.2 3 .4.6 1.2 1 1.7 1.6.3.4.3.4.1.9-.2.6-.4 1.2-.6 1.9-.6 2.5-.5 5.3.9 7.5 0 0 .1 0 .1-.1-1.1-2.6-.7-5.6.3-8.1-.3 1.9-.2 3.8.4 5.6h.1c-.3-2-.1-4.1.6-6 .5.3.7.4.8.9.1.4-.1.9-.2 1.3l-.3 2.6c-.2 1.8-.4 3.5-.5 5.3h.1c.7-2.9 1.3-5.9 2-8.8.4.2.5.3.7.6.1.4 0 1.1-.1 1.6l-.3 3.6c-.2 2.4-.5 4.7-.9 7.1h.1C35.1 88 36.1 84 36.4 80c.7.4.1 3 0 3.8-.2 1.4-.4 2.8-.5 4.2h.1c.7-2.4 1.3-4.8 1.7-7.3 3.9 1.9 8.3 3.2 12.5 4.1 4.2.9 8.6 1.5 12.9 1.1 8-.6 15.6-4.2 21-10.2.8-.9.8-1.1.8-2.3 0-1.4 0-2.8.1-4.2 0-1 .1-1.9.2-2.9s-.2-2.3.4-3.1c.3-.3.7-.6 1-.9 3.2-3 6.4-6 9.5-9 1.7-1.7 3.5-3.3 5.2-5 .9-.6 2.8-1.8 1.9-3zM33.7 76.2c-.5-.3-.4-.4-.1-.9.2-.3.4-.7.5-1-.2.6-.3 1.3-.4 1.9zm.1-5.4c-.7 1.4-1.7 2.5-2.3 3.9-.4-.3-1.3-.8-1.5-1.3-.2-.5 0-1.6 0-2.1 0-2.3.2-4.7-.3-7l3.9 1.5c.3.1 1 .2 1.2.5.4.4.1.9.1 1.5-.1.6 0 .8-.2 1.4-.2.5-.6 1-.9 1.6zm1.4 6.5c-.4-.3 0-1 .1-1.5 0 .5-.1 1-.1 1.5zm-.2-8c-.1-.5 0-.6.3-.5-.1.2-.2.4-.3.5zm.7-.4c.2.1.2.7.2.9-.1-.3-.2-.6-.2-.9zm-.2-.2c-.9-.2-.4-.9-.3-1.7.2-.9.5-1.8.8-2.6.7-1.7 1.5-3.3 2.4-4.9 1.9-3 4.5-5.5 7.3-7.7 2.5-1.9 5.5-3 8.4-4.1.7-.3 1.9-1 2.7-.9.5.1.9.6 1 1 .2.9-.5 1-1.1 1.1.4-.5-.4-2.1-.9-1.8.3.2.5.8.6 1.1.3.9-.3.7-1.1 1 .3-.8-.5-1.5-1.2-1.4.5.1.6.3.7.8.4.9 0 .8-.8 1.1.3-.6-.3-1.7-1-1.5.3.3.8.9.7 1.4-.1.5-1.5.8-2.1 1.1.2-.6-.6-1.9-1.3-1.4.4.1 1.1 1.1 1 1.5-.1.2-1.5.7-1.8.8-.4.2-.9.4-1.3.6-2.2 1.1-4.3 2.5-6 4.4-1.5 1.7-2.6 3.8-3.6 5.9-.5 1.1-1 2.2-1.4 3.3-.2.6-.5 1.2-.7 1.8-.2.9-.1 1.2-1 1.1zm1.2 9.5c0-.2 0-.4.1-.6-.1 0 0 .7-.1.6zm47.4-9.6c-.2 1-.3 2-.5 3-.1.6-.1 1.2-.2 1.8-.1.7-.2.9-.7 1.4-1.5 1.4-3.1 2.7-4.8 3.8-3.4 2.3-7.3 4-11.3 5-8.6 2.1-17.4 1.4-25.3-2.8-.5-.3-1-.6-1.5-.8-.4-.2-1.5-.7-1.7-1-.1-.2.1-1.1.1-1.3V76c-.1-2.4-.6-5-1.9-7 .7 0 .6-1.5 1.1-1.7.3-.1 1.2.5 1.5.6 1.5.6 2.9 1.3 4.4 1.9 3.8 1.6 7.7 3.3 11.5 4.9 2.9 1.2 5.8 2.5 8.7 3.7.9.4.9.5 1.8 0 1.4-.8 2.7-1.7 4.1-2.7C74.7 71.9 79.9 68 85 63.9c-.3 1.5-.7 3.1-.9 4.7zm18.3-22.7c-2.5 2.7-5.5 4.9-8.2 7.3-3.2 2.8-6.2 5.7-9.4 8.4-3.4 2.9-7.1 5.5-10.7 8.1-2.1 1.5-4.2 2.9-6.3 4.4-.9.6-2.7 2.4-3.8 2.2-1.4-.2-2.9-1.2-4.2-1.7-2.4-1-4.9-2-7.3-3-4.8-2-9.6-4-14.5-5.9 1.9-3.9 3.9-7.6 7.4-10.3 3.7-2.8 7.9-4.3 12.2-5.9 1.4-.5 1.4-2.4 0-3-.9-.4-2.1.4-3 .7-3.6 1.4-7.2 2.7-10.3 4.9-4.3 3.1-7.4 7.4-8.8 12.6-6.8-2.4-13.8-4.6-20.7-6.9-1.9-.6-3.8-1.3-5.7-1.9 1.9-1.2 3.7-2.8 5.6-4 .9-.6 1.8-1.1 2.7-1.7 1.7-1 3.3-2.1 5-3.1C27.6 43.8 32.8 40.4 38 37c2.9-1.8 5.7-3.7 8.6-5.6 2.5-1.7 5.1-3.4 7.6-5 .6-.4.7-.6 1.3-.3 1.4.6 2.6 1.5 4 2.1 2.4 1.1 5 1.9 7.5 2.7 6.4 2 12.6 4.4 18.7 7 3 1.3 6.1 2.6 9.1 3.8 1.4.6 2.8 1.1 4.1 1.8.5.3 3.7 2.2 3.5 2.4z"/>
</svg>