<svg width="110" height="110" viewbox="0 0 110 110" xmlns="http://www.w3.org/2000/svg">
    <path class="uk-fill-primary" fill="#c6e3f7" d="M88.9 70c-.5-18.1-.5-36.3-.1-54.4 0-1.4-.6-2.4-1.4-3.1.2-1.7-.7-3.4-2.9-3.9-5.5-1-10.9-1.2-16.4-.6-1.7-1.6-3.8-2.6-6.1-3-2.5-6-17.8-5-21.6-.9-3.6.4-8.8 1.4-11.1 4-4.9-.2-9.8.2-14.7 1.3-2.1.4-2.9 2-2.9 3.7-.5.6-.9 1.4-.9 2.4-.7 27.7-1.8 90.7 4.7 90.7 16 .2 31.9.6 47.9.6 4 1.9 10.7 3.1 17 2.3 5.7-.7 12.1-2.4 15.4-7.8 6.4-10.7 3.5-24.7-6.9-31.3zm1 27.3c-1.8 3.4-5.5 5.2-9.3 5.8-2.4.4-5.8.5-8.6-.9-3.9-3.3-4.7-3.8-6.2-4.7-.8-.7-.5.9-.9.9-14.3 0-31-.1-45.3-.3-1-27.9-.7-54.6-.9-81.9 5.1-.1 11.1-.2 15.7-.1 1-3.6 4.2-3.3 7.7-4.2 1.7-.3 2.2-.5 2.8-2.1 2-4.7 8.8-4.3 10.9 1.3.8 1.7 9 1.9 9.3 4.9 1.9.6 11.3.1 15.7.3-.4 17.9-1.1 40.1-.6 58 3.4 1.5 8.2 3.8 10.1 8.9 1.8 4.9 1.5 10.4-.4 14.1z"/>
    <path class="uk-fill-default" opacity=".04" d="M77 74.7l2.9-.1c0-1.3.8-57.2.7-58-.1-.4-.8-.5-1.2-.4H65.5c-.5 0-.4-.3-1.2-1.1-.1-.2-4.2-2.8-4.7-2.2-.9 1.1-1.5 2-2.4 3.1-7.1.4-14.2.6-21.3.7 0-.3.1-.7.1-1 0-.4-.4-.8-.8-.8-.5 0-.5 1.3-.7 1.3-1.7-.1-15.5-.1-15.5-.1-.4 0-.2 1.1-.2 1.1l.2 36.4s.6 42 .5 44c-.1.7 1 .6 1.1.6 7.3.2 25.1.3 27.9.2.1 0 9.1-.1 17.1-.3L64.2 95c-3.7 0-7.9.1-12.1.1.5-.8.3-1.9-.8-2.1-6.2-.9-12.3-2.1-18.3-3.8-4.6-1.4-7.1-3.8-8.6-7v-1.4c0-.7-.4-1.1-1-1.4-.2-.6-.8-5.5-1.1-7.2-.1-.7-.6-1-1.2-1.1-.1-.8-.1-1.8-.1-3.1 0-.4-.1-14.2-.1-16.9 0-.2-.1-23.9-.1-30.8.3.4.8.6 1.5.5.5-.1.9-.2 1.4-.2.4-.3 4.6-.3 6.4.2.9.3 1.6-.3 1.8-1 .9.1 1.8.2 2.8.4.6.1 1.2-.1 1.5-.5 0 0 .3.6.6.7 1.5.3 16.2 1.3 17.3 1.4.1.1 5 3 7.3 4.4.7.4 1.4.2 1.8-.3.3.2 2 .7 2.5.4.2.1 3 1.7 4.3 2.4.6.3 1.1.3 1.5 0 1.2 1.1 3.5-.6 1.5-3.1.5-.2.9-.7 1-1.3.1-.4-2.5-3.9-3.5-5.2.6-.1 1.2-.3 1.9-.3.6 0 .9-.7.7-1.1 1.5 0 3 0 4.5.1v6.3c0 .4 0 12.9-.1 18.3.1.4-.6 23.5-.5 32.3M52.7 12.2c.1-.7-.2-1.5-.6-2.1-.4-.5-1.1-.4-1.3 0-.2.2-.4.5-.4.8.1.3-.1.7-.4.9-.3.2-.4.5-.3.8-.1.4.1.8.4.9.1.1.2.1.3.2.1 0 .3.1.4.1.5.1 1 .1 1.5-.3.3-.2.5-.8.4-1.3zM47 33.6c-.2-.2-11-.1-15.5-.1-.1 2.3.1 16.4 0 18.8 3.6.2 11.9-.1 15.5 0 .1-6.5.1-18.6 0-18.7z"/>
    <path class="uk-fill-default" opacity=".2" d="M65.1 17.3c-.5-.7-1.1-.5-1.9-.5-1 0-2 .1-3.1.1-2 .1-4.1.1-6.2.2-4.1.1-8.2.2-12.3.2-1.1 0-2.2 0-3.4.1-.6 0-1.3 0-1.9.1-.5-.1-1-.1-1.5-.2-1-.1-1.2 1.6-.2 1.7 3.9.6 7.9.9 11.9 1s7.9 0 11.9-.4c2.3-.2 3.8-.5 6-.9.6-.1 1-1 .7-1.4zM91 87.2c-.5-6.4-5.9-11.7-12.2-12.4 0-3.2.1-6.5.1-9.7 0-1.2.8-26.9.2-37.6-.3-5.7-1-9.4-1.1-9.1-.2.6-.2 1.3-.2 1.9 0 .7 0 1.4-.1 2.1v4c0 2.7 0 5.4.1 8.1 0 5.4-.3 25.9-.4 26.5-.1 1.1-.1 2.2-.1 3.3-.1 2.1-.1 4.3-.2 6.4v4c-1 0-2 .1-3 .3-.2-.3-.5-.6-1-.7-11.2-2-15.6 12.3-12 20.8-1.6 0-3.1 0-4.7.1-7.3.1-14.7.2-22 .2-4.1 0-8.3 0-12.4-.1-1.2 0-1.2 1.9 0 1.9 7.3.1 14.7.1 22 0 7 0 14-.2 21.1-.4.7.8 1.6 1.4 2.7 1.9 1 .9 2.2 1.6 3.4 2.1.6.6 1.2 1.1 1.9 1.5 2.6 1.4 5.6.7 8.3-.2.1 0 .3-.1.4-.2 6.6-1.4 9.8-7.9 9.2-14.7zM40 40.8c-.8-.3-1.5-.3-2.2 0a2.78 2.78 0 0 0 1 5.2c.9 0 2.2-.4 2.6-1.2.4-1.2 0-3.3-1.4-4zm5 7.7c-.4-.7-.7-.9-1.4-1.2-.8-.4-1.4-.8-2.3-.8-.9.3-2 1.3-4.2.1-.6-.1-1.5.3-2 .6-1.4.5-2 2.5-1.9 3.3.1 1-.3 1.4.2 1.8 2.5 0 11.4.1 11.9.1.1-.3.1-3.3-.3-3.9z"/>
    <path class="uk-fill-default" opacity=".9" d="M50.6 9.8c-.3-.2-.7-.3-1.1-.1-.4.2-.6.7-.4 1-.1.2-.1.5-.1.7 0 .3.1.7.5 1 .3.3.8.4 1.3.2.4-.2.7-.6.7-1-.2-.3-.4-1.5-.9-1.8zm.2 1.7c-.4.3-.5.2-.8.1-.2-.1-.5-.5-.8-1 .2-.1.3-.2.4-.1.1 0 1 .2 1.1.4.3.1.2.4.1.6zM70 88.4c.9 1.3 1.8 2.5 2.8 3.7.5.7 1.4 2.5 2.2 2.9.4.2 2.4-2.2 2.7-2.5 1.1-1.1 2.1-2.3 3-3.6.9-1.2 1.7-2.4 2.6-3.6.4-.6.9-1.1 1.3-1.6.1-.1.4-1 .2-.6-.1-.1.2-.3.2-.2.1.5 0 .7-.1 1.2-.4 1.1-.9 2.2-1.4 3.2-1.1 2.5-2.7 4.7-4.5 6.7-1.3 1.4-3.6 4.1-5.4 2-.8-.9-1.3-2.2-1.8-3.3-.8-1.4-1.4-2.8-1.8-4.3zM37.8 40.8c-2.7 1.4-.4 6.3 2.3 4.8 2.6-1.5.5-5.8-2.3-4.8zm-.1 0c1.5-.5 3-.4 3.7 1.2.7 1.4.2 3.2-1.3 3.8-3.1 1.4-5.5-3.2-2.4-5zM33.2 52c-.1-1.9-.3-3.9 1.7-4.9.7-.4 1.6-.7 2.4-.6.9.2 1.3.6 2.2.4.7-.1 1.4-.6 2-.6.7-.1 1.8.4 2.4.8 1.7 1 1.8 3.1 1.5 4.8-.3-1.7 0-3.4-1.7-4.4-.6-.4-1.6-.8-2.3-.8-.8.1-1.6.6-2.5.5-.8-.1-1.4-.6-2.2-.6-.7.1-1.5.6-2 1-1.6 1.2-.8 2.9-1.5 4.4zm13.9.3c-3.1.1-6.2.1-9.3.2h-5.2c-.3 0-.8.1-1-.2-.6-.5-.2-1.9-.2-2.6.1-.8 0-1.7.1-2.5 0-1.7 0-3.4.1-5.1v-5.8c0-.7-.4-2.1-.1-2.7.3-.6 1.3-.4 1.9-.4 3.3 0 6.5-.1 9.8-.1h2.5c.5 0 1.4-.3 1.8.2.4.5 0 2.2 0 2.8-.2 5.5-.3 10.9-.4 16.2zm0 0c0-2.3-.1-4.7-.1-7 0-1.2 0-2.3-.1-3.5 0-1.5-.1-3-.1-4.5 0-.6.3-3.4.1-3.6-.3-.2-1.9 0-2.3 0h-5c-1.8 0-3.6 0-5.4-.1-.6 0-2.3-.1-2.4 0-.4.3-.1 1.5-.1 1.9.2 4.1 0 8.2.1 12.3v2c0 .5-.4 1.8.1 2.1.4.3 1.9 0 2.4 0h4.1c2.9.2 5.8.3 8.7.4zm6-15.5c5.1-.6 10.4-.3 15.6-.1-5.2.7-10.5.4-15.6.1zm-.1 4.4c2.4-.3 4.8.1 7.2-.1 2.2-.1 5.1-.5 7.2.2-2.6.3-5.1.2-7.7 0-2.1 0-4.6.6-6.7-.1zm.1 5.5c4.2-.4 8.5-.2 12.8.1-4.3.5-8.6.2-12.8-.1zm37.9 36c-1.3-3.1-3.6-4.9-6.4-6.5-1.1-.7-2.3-1.3-3.5-1.7.1-12.6.3-46 .2-50 0-2-.2-4-.2-6.1 0-.6.4-2.2-.1-2.7-.6-.5-3.1-.1-3.8 0-2 0-4 .1-6 .2-.1 0-4.8.1-5.8.1-.5-1.9-2.4-2.8-4.4-3.2-1.3-.3-2.8-.4-4-1.1-1-.6-1.5-1.6-2.1-2.6-1.4-2.2-3.8-3.4-6.3-2.8-1.1.3-2.2.9-2.9 1.7-.8.8-.9 2.1-1.8 2.8-.8.7-2.3.7-3.3.8-1.2.2-2.4.5-3.5 1-1.4.6-2.3 1.9-2.7 3.3-.5-.2-2.8-.3-3-.3-1.3 0-10-.1-13.1-.3.3 5.1 0 10.2-.1 15.4-.2 5.3-.2 10.4-.3 15.5-.1 10.4.1 20.9.6 31.3.1 5.3.3 10.6.4 15.8 0 1.1.1 2.2.1 3.3 0 .4-.2 1.2.1 1.6.3.3 1.3.1 1.8.1 1.1 0 2.2 0 3.3.1l14.1.3c9.2.2 18.4.3 27.6.1.5.5 1 1 1.5 1.4.3-.2-.8-1.3-1-1.7-.5-.7-.9-1.5-1.2-2.2-.7-1.5-1.2-3.1-1.6-4.8-.7-3.4-.8-7.5 1-10.6 1.8-3 5.1-4.7 8.3-5.5 3.2-.8 6.9-1.3 9.9.4 2.7 1.6 5 3.5 6.3 6.4 1.2 2.9 1.8 6.2 1.3 9.3-.5 3-1.8 6.1-4.3 8s-6.1 2.8-9.2 2.8c-3.2 0-5.9-1.2-8.3-3.4-.4-.4-1.3-1.8-1.8-2-.4-.1.5 1.2.6 1.3.8 1.2 1.7 2.2 2.8 3.2 4.8 4.1 13.4 3.3 18-.8 5.1-4.3 5.2-12.2 2.8-17.9zM36.5 13.6c1.6-.9 3.5-1 5.2-1.3 1.9-.2 2.8-.7 3.7-2.4.7-1.5 2.1-2.7 3.7-3 1.8-.4 3.7.2 4.9 1.7 1.2 1.4 1.7 3 3.5 3.7 1.8.8 3.9.7 5.6 1.7.7.4 1.2 1 1.5 1.7.1.4.4 1.8 0 2.2-.2.1-1-.1-1.3-.1h-1.7c-3 0-5.9-.1-8.9 0-6.1.1-12.2.3-18.4.6-.1-1.8.6-3.8 2.2-4.8zm27 81.7c.4.7.8 1.4 1.3 2.1-.5-.1-1.1.1-1.7.1-2.2.1-4.4.2-6.6.2l-12.9.3c-4.3.1-8.5 0-12.8 0-2.1 0-4.2 0-6.3-.1-.6 0-4.5.1-4.8.1 0-.2-.1-13.3-.2-16.3 0-10.8.1-21.7.1-32.6 0-5.4-.1-10.8-.2-16.2 0-5.5.1-10.9-.3-16.4 3 0 6-.2 8.9-.2 1.6 0 3.1-.1 4.7-.1.1 0 1 .1 1.3 0 0 .6 0 1.2.1 1.8-1 0-12.1-.1-13.3-.2-.1 9.2-.1 18.4-.1 27.5 0 8 .1 16 .3 24 .2 7.9.7 15.8.3 23.7 0 .5-.2 1.8.2 2.2.3.3.3.2.7.2 1.8.1 3.7-.1 5.5-.1 4-.1 8.1 0 12.1.1 8 .2 15.8-.1 23.7-.1zm12.9-21c-.4 0-.7.1-1.1.1-5.9.5-12.3 2.7-13.5 9.3-.7 3.5-.2 7.4 1.3 10.7-.6 0-1.4.1-1.8.1-1.9 0-13.2.3-17 .5-3.9.2-7.7.1-11.6.1-1.9 0-3.9.1-5.8.1h-2.8c-.5 0-2.1-.1-2.3 0 0-5.6 0-11.2-.1-16.8 0-10.1-.1-20.2-.1-30.3-.1-5.1-.1-10.2-.2-15.3 0-2.5 0-5-.1-7.5v-7c4.2 0 8.5 0 12.7-.3 0 .1 0 .3.1.4 6.5.2 13 .4 19.5.4 2.7 0 5.5-.1 8.2-.1 1.4 0 3.2.6 3.6-1 2.5 0 5.1 0 7.6.1 1.3 0 2.6.1 3.8.2.7 0 .6-.1.8.4.1.3.1 1 .1 1.3 0 1.9-.4 3.9-.4 5.8 0 2.2.2 4.5.2 6.7 0 4.7-.3 9.4-.5 14.2l-.6 27.9zm3.6-54c-.1 2.9-.1 5.9-.2 8.8-.1 5.8-.3 11.6-.5 17.3-.1 5.7-.2 11.5-.4 17.2-.1 2.8.1 5.7 0 8.5 0 .5-.4 1.7 0 2.1h-1.5c.3-.4.2-1 .1-1.8-.1-1.7.2-11.8.2-15.1.1-6.8.3-13.5.4-20.3.1-5.9-.5-11.9 0-17.7 0-.8.3-1.5-.6-1.8s-2.4 0-3.3 0c-.8 0-7.2 0-8.8.2v-.5c0-.4 0-.7-.1-1 1.3.4 6.8.3 7.5.3 1.4 0 2.8.1 4.2.1.7 0 2-.3 2.6 0 1.1.5.4 2.7.4 3.7zM37.8 40.8c-2.7 1.4-.4 6.3 2.3 4.8 2.6-1.5.5-5.8-2.3-4.8zm-.1 0c1.5-.5 3-.4 3.7 1.2.7 1.4.2 3.2-1.3 3.8-3.1 1.4-5.5-3.2-2.4-5zM33.2 52c-.1-1.9-.3-3.9 1.7-4.9.7-.4 1.6-.7 2.4-.6.9.2 1.3.6 2.2.4.7-.1 1.4-.6 2-.6.7-.1 1.8.4 2.4.8 1.7 1 1.8 3.1 1.5 4.8-.3-1.7 0-3.4-1.7-4.4-.6-.4-1.6-.8-2.3-.8-.8.1-1.6.6-2.5.5-.8-.1-1.4-.6-2.2-.6-.7.1-1.5.6-2 1-1.6 1.2-.8 2.9-1.5 4.4z"/>
</svg>