<svg width="110" height="110" viewbox="0 0 110 110" xmlns="http://www.w3.org/2000/svg">
    <path class="uk-fill-primary" fill="#c6e3f7" d="M92.5 86.3c-.4-4.7-.9-9.6-2.2-14.2-2.8-9.9-9.6-17.9-15.5-26.1-7-9.6-13.9-19.2-20.9-28.9-.9-1.2-2.1-1.7-3.3-1.7C40 8.1 24.1 6.8 17.2 20.1c-8.4 16.3 10.1 32 18.7 43.5 5.2 6.8 8.7 14.9 14.6 21.2 5.7 6.1 13.4 9.6 21.2 12.1 5.6 1.8 16.4 6.6 20.2-.6 1.5-2.9.8-6.8.6-10zm-7 9.4c-2.8.4-12.3-5.2-28.5-11.7-8.2-11-24.9-34.5-30-41.4-4.5-6.1-8.5-17.2-1.1-23.6 7-6 17.5-2.6 21.6 3.2.2.4 3.3 3 3.6 3.2 5.1 8.7 25.3 33.1 29.6 41.1 2.1 3.8 5.4 27.7 4.8 29.2z"/>
    <path class="uk-fill-default" opacity=".04" d="M84.1 92.5c-1.7-1.3-5.4-4.4-5.8-4.6-4.3-3.4-8.8-6.6-13.4-9.6-.9-.9-1.7-1.8-2.5-2.8-.1-.1.3-.7.6-.9 4.9-2 8.3-6.2 7.2-7.5-3.6-4.1-7-8.4-10.2-12.8-5.1-9.3-10.4-18.5-16.6-26.9-2.5.9-13.1 5.7-14.7 16.4 3.9 7.5 24.9 35.5 27.7 40 1.5.5 20.9 8.8 27.3 11.6 1.8 1 2-1.8.4-2.9z"/>
    <path class="uk-fill-default" opacity=".2" d="M85.3 95c-1 .8-7.7-1.8-8.5-2.6-1.8-1.9.2-5.1 2.7-5.9.5-.2 4.6-1.3 5.2.4 0 .5 1.1 7.7.6 8.1zM37.1 20.1c-1.9-1.3-4.2-1.9-6.4-2.4-.5-.1-.8-.4-.9-.7-1.9.8-3.5 2-4.6 3-.6.6-3.1 5.7-3.2 9-.4 1.2 1.2 8.7 3.5 10.9 2.5-7.7 7.2-13.3 15.2-16.1-1.2-1.3-2.2-2.8-3.6-3.7zm21.5 57.6L34.3 42.3c-1-1.5-3-2.1-4.6-1.1-1.5.9-1.1 3.1-.1 4.6 0 0 22.9 32.4 26.7 37.8 1.5-.9 3.4-4.4 2.3-5.9z"/>
    <path class="uk-fill-default" opacity=".9" d="M86.4 93.4c-.4-3.1-.9-6.2-1.2-9.3-.4-3.8-.7-7.5-1.4-11.2-.3-1.6-.6-3.1-1.1-4.6-.6-1.6-1.6-3-2.6-4.4-2.1-3-4.4-6-6.6-8.9-4.4-5.7-8.8-11.5-13.3-17.2-2.3-2.9-4.6-5.9-6.8-8.9-.5-.7-1-1.4-1.6-2.2-.2-.2-.4-.7-.6-.9-.6-.5-.5-.4-1.3-.3-1.8.2-3.6.6-5.4 1.1-6 1.7-11.6 5.4-14.5 11.1-.8 1.5-1.5 3.1-1.8 4.8-.4 1.8.3 3.3 1.3 4.7 1 1.4 2.1 2.7 3.1 4.1 5.7 8 11.7 15.9 17.5 23.9l3.6 5.1c1.1 1.5 2 3.2 3.7 4.1 1.8 1 3.9 1.7 5.8 2.5 1.8.8 3.6 1.6 5.5 2.4 3.7 1.6 7.2 3.6 10.8 5.4 2.2 1.2 7.4 3.4 6.9-1.3zM55.6 82c-6.9-9.8-13.3-20-20.2-29.7-.6-.8-1.2-1.7-1.8-2.5-1.1-1.5-2.5-2.9-3.4-4.6-1.3-2.3.5-5.5 1.6-7.6 1.2-2.2 2.8-4.2 4.7-5.8 2-1.7 4.2-2.9 6.6-3.9 1.2-.5 2.4-1 3.7-1.3.6-.2 1.3-.4 1.9-.5.4-.1 1.8-.7 2.1-.5.4.2 1 1.7 1.2 2 .4.6.7 1.2 1.1 1.8.8 1.3 1.6 2.5 2.5 3.8 1.7 2.5 3.4 5 5.2 7.4 3.5 4.9 7 9.8 10.5 14.6 1.8 2.5 3.6 4.9 5.4 7.4.6.8 1.3 1.6 1.7 2.5.2.5.4.3.2.7-.3.5-1.4.8-1.8.9-1.4.4-2.7.3-4.1.1-1.2-.1-2.5-.3-3.4.6-.9 1-1.2 2.4-2 3.4-.8 1.1-1.8 2.1-3.1 2.7-.6.3-1.2.5-1.8.5-.6.1-1.4-.2-1.9-.1-.9.2-.7 2.2-.8 3-.3 1.4-.6 2.7-1.3 3.9-.3.6-.7 1.5-1.3 1.9-.5.4 0 .4-.7.1-.3 0-.6-.5-.8-.8zm29.1 12.5c0 .9-2.8-.3-3.1-.5-.9-.4-1.8-.8-2.6-1.2-.5-.2-1-.5-1.4-.7-.2-.1-1.4-.5-1.5-.7-.2-.4.6-1.7.8-2.1.4-.6.9-1.2 1.5-1.6.7-.6 1.6-.9 2.5-1.2.3-.1 2-.3 2.1-.5.2-.3-2-.4-2.3-.4-.9.1-1.6.5-2.3 1a6.53 6.53 0 0 0-2.5 4.8c-3.2-1.5-6.4-2.8-9.7-4.1-1.5-.6-3.1-1.2-4.6-1.8-1.4-.6-3.1-1-4.4-1.9 3.2-1.3 4.8-5.3 4-8.5 2-.3 4-1 5.7-2 .8-.4 1.5-1 2.1-1.6.6-.7 1-1.7 1.6-2.3.5-.4.2-.4.9-.4.9 0 1.8.2 2.8.1 1.9-.2 4-1.1 4.9-2.8 2.6 3.8 3 8.8 3.6 13.3.4 2.8.6 5.7 1 8.5.2 1.4.5 2.8.7 4.2 0 .5.4 1.9.2 2.4zM36.1 45.8C38 48 52.9 67.7 52.3 68.1c-.5.4-5.6-6.7-6.1-7.4-1.1-1.6-2.2-3.3-3.3-4.9l-2.7-3.9c-.5-.8-1-1.5-1.6-2.3-.7-1.2-1.7-3-2.5-3.8zm1.9-7.5c1.7 2.1 20.4 26.8 19.9 27.1-.4.2-4.8-5.7-5.3-6.3-1.8-2.3-3.4-4.7-5-7.1-1.6-2.4-3.3-4.7-4.9-7.1-.9-1.3-1.8-2.5-2.7-3.8-.7-.7-1.5-2.1-2-2.8zm9.2-16.8c-3-4.9-10-7.7-15.6-6.5-5.4 1.2-9.4 5.8-10.2 11.2-.5 2.8 0 5.7.9 8.4.4 1.3 1 2.6 1.7 3.8.4.7 1.4 3 1.9 1.3 1.7-5.9 5.9-10.5 11.1-13.6 3.3-2 6.8-3.2 10.6-3.9-.1-.2-.2-.5-.4-.7zm-1.7.6c-9.9.9-18.2 7.4-20.2 17.4-3.9-5.7-3.8-15 1.7-19.7 6.1-5.3 15.2-3 20.4 2.4-.6-.1-1.2-.1-1.9-.1z"/>
</svg>