<svg width="450" height="480" viewBox="0 0 450 480" xmlns="http://www.w3.org/2000/svg">
    <path class="uk-fill-secondary" oopacity=".6" fill="#fff" d="M380.4 480c-.3-6.7-.1-18.2-.2-21.5.5-39-2.1-118.7-2.1-124.7-.6-9.4 3-11.2-13.2-10.9-12.3.2-41.2 1.5-42.2-.1-6.2-2.9-25.3-7.7-26.8-8.5 4.5-3.5 4.8-5.9 5.7-7 2.4-1.6 6.5-7.6 7.5-13.5 6.8-8.4 8.6-20 8.4-34.3-.1-7.2-2-17.9-4-28-1.3-6.5-2.8-12.6-3.6-17.3-3-17.8-9.3-46.2-14.4-52.7-3-6.3-4.9-9.5-5.3-11.7 0-2.8-8.9-10-17.4-16.5-1.3-1-11.9-6.9-15.6-8.4-8.6-3.4-19.4-6.7-29.5-7.4-13.7-1-24.3 5.9-33.8 14-10.3 8.6-20.4 17.3-26.2 30-1.6 3.5-3.5 7.8-4.2 12.1-.5 3.3-.6 6.1-.6 9.4 0 1.3 0 2.6-.1 3.9-.5 12.1-4 23.4-5.4 34.5-1.6 12-6.7 28.2-5.4 48 1 7.6 3.3 14.6 5.4 17.4.5 1.6.7 3.4 1.1 4.7 1.6 5.8 7.8 13 11.4 14.1.6 1.2 1.8 3.5 5.5 4.4-13.3 1.9-32.1 4.9-47.1 9.8-3.2 1.7-7.2 2-7.5 4.1-6.9.7-32.3-1.1-33 3.8-1.8 3.3-1.4 11.9-1.5 18.2-.1 3.4-.2 134-.2 134l294.3.1zm-82.5-330.8zM33.1 183.4c-.2 2.3 0 4.8.7 7.2 1.9 7.6 4.1 12.4 7.7 17.4 3.6 4.8 11.5 11 17.3 13.6 1.9.8 3.4 1.3 4.8 1.7 6.8 1.5 13.4 2.5 20.3 3.4 1.1.2 2.2.3 3.4.5 3-6.4 5.6-12.5 6.6-19.1 1.2-8.1-2.6-25.8-5.1-31.4-2.1-4.6-9.5-11.4-15-15.7-.7.4-1.2 1-1.9 1.6-2.3 2.1-5.5 5-13 4.1-2.3-.2-5.9-1.5-9.1-3 0 2-.1 4.1-.4 7.1-.2 2.3-2 6.5-3.2 8.1-1.7 2.3-4.4 5.1-8 5.4-1.8.1-3.5-.3-5.1-.9zm44-73c2.4 1.8 12.7 6.4 26.9 10.4 15.7 4.3 25.6 4.7 28.5 3.3.3-.6.6-1.7.6-2.1-.7-3.6 2.2-12.8 10.6-37.2 2.3-6.5 4.8-13.9 5.2-15.7-.2-2.7-3.8-15.1-5.7-19.1-.8-1.4-6.2-4.5-8.5-5.2-4.6-1.5-8.9-3.1-13-4.7-7.6-2.9-14.8-5.7-22.2-6.8-2 11.3-7.2 26.7-12.3 41.7-4.6 12.9-10.6 30.7-10.1 35.4zm63.7 10c.1 0 .1 0 0 0zM222.5 72c2.8 2.3 16.1 12.1 23.2 16.8.6-9.3-1.1-24.9-1.9-29-2.7-4.6-7.4-17.5-13.3-33.7-2-5.6-4.3-12-5-13.6-2.3-2.4-6.4-4.4-9.1-4.4-.2 0-6 .1-9.2 4.1-2.4 3-2.9 7.6-1.6 13.7 1.6 7 14.6 41.1 16.9 46.1zm109.1 57.4c4 1 21.8 1.1 25-1.7 3.3-2.9 7.5-7.6 8.6-13.3.3-1.8.5-3.5.7-5.4.4-4.3.9-8.7 3.4-13.1 1.1-1.9 5.5-7.2 14.2-17.6 1.2-1.5 2.5-2.9 3.5-4.1-3.4-3.4-10.1-9.5-13.5-12.1-6.3 5.5-24.2 20.6-27.8 21.5-.3.1-.7.1-1 .1h-.4c-10.5 0-20.3 7.9-21.7 11.3-.1.3-.3.5-.4.8-2.5 3.5-3.4 9.5-2.3 16.1 1.3 8.4 4.5 13.1 11.7 17.5zm44.1-69.1l-.2.2.2-.2zm20.4 162c2.8-.9 9-6.4 9.7-10.5 1.9-3.5-1.2-16.2-1.3-16.7 2.7-2.5 7.9-8.3 9.4-9.3 1.3 2.9 1.3 4.5 1.3 7.7 0 .1 4.7.1 5.4-.6-1.5-3.4-.4-4.5-1.5-7.6-.5-1.5-1.4-2.5-2.1-3.3.5-1.4 2.5-1.6 3-3-.2-.5-2.4-2.1-3.8-3.5-1.8.1-2 1.7-3.1 1.3-.9-.8-4-5.1-8.8-5.6s-8.6 1.7-11.2 3.8-5.5 10.5-.7 17.9c-1.5 2.4-11.5 9.2-17.3 13.4-3.9-5.8-.7-13.2 2.3-16.8-2.3-.8-5.2-2.3-7.6-1.9-5.8 5.5-6.7 15.8-1.9 25.1-.8.9-2 1.8-2.3 2.8.2 1 1.2 2 2.3 3.2 1.4 1.6 2.8 2.8 3.4 2.6.2-.1 2.3-2.5 3.6-2.5 2.3-1 9.3 8.5 21.2 3.5zm-16 .5c.1 0 .1.1 0 0zm46.4-39.3zm-28.5-.1c.4-1.6 1.5-3.4 2.7-4.6.5-.4 4.8-2.6 7.6-.1.3.2 1.3 1.2 1.3 1.5s-8.9 7.5-10 8.3c-1.9-2.6-1.9-4-1.6-5.1zm-.2 15.5c2.5 3.4 1.2 11.3.8 12.1-.6 1.1-4.3 5.2-7.2 5.4-5.9.4-9.8-2.6-10.9-4.2 1.3-1.1 14.7-10.1 17.3-13.3zm-116 111.3c12.3 3.9 40.6 11.5 40.6 12.5s-5.4.5-10.5.4c-2.3-.1-42.6-.2-56.3 1.2-1.9.2-3.2-.2 1.5-3.1 1.8-1.1 3.5-2.1 4.8-3.6-.2-.4 2.4-3.7 1.5-7.1-.3-2.2-1.4-6-2.8-7.6l21.2 7.3zm-83 13.8c-1-.5-1.9-1.1-2.7-1.9-.2-.3-.4-.5-.7-.7-3.8-4-4.9-8.1-2.1-13.2.4-.4 2.3-2.8 2.4-3 .5-.4 5.5-4.2 4.7-3.6-.3.2-6.4 4.3-20.1 7.3-9.4 2.6-19.2 2.8-28.7 5.1-.2.1-10.7 1.6-19.7 4-6 1.6-11.3 4.4-12.3 5.3-1 1.6 2.2 1.1 2.6 1 .7 0 31.4.1 33.1 0 1.9.2 41.2.6 41.2.6 1.4-.1 3.5-.3 2.3-.9z"/>
    <path class="uk-fill-primary" fill="#c6e3f7" d="M89.5 235.4h-.6l-6.2-.9c-7.1-1-13.8-1.9-20.9-3.5-2.1-.5-4.2-1.2-6.2-2.1-7.1-3.1-16.1-10.2-20.5-16.1-4.2-5.8-6.9-11.6-9-20.1-1.1-4.3-1.3-8.6-.5-12.7.2-1.3.6-2.9 1.6-4.4.3-.6.8-1.1 1.3-1.5a4.1 4.1 0 0 1 5.2.5c.2.2.4.4.5.7 1.7.9 2.9 1.2 3.3 1.2.3-.1 1.2-.6 2.3-2.1.4-.6 1.5-3.2 1.7-4.1.4-5.2.4-7.1.1-11.3-.1-1.9.9-3.8 2.6-4.8 1.7-1 3.8-.8 5.4.3 3 2.1 8.5 4.3 9.9 4.3h.3c4 .5 4.9-.4 6.8-2.1 1.5-1.4 3.4-3.1 6.6-4.1 1.2-.4 2.5-.2 3.5.6C82 157 92.9 166 96.2 173.5c2.9 6.5 7.2 25.7 5.7 35.9-1.3 8.6-4.9 16.3-8.4 23.7l-.1.3c-.9 1.2-2.3 2-3.9 2zm-56.4-52c-.2 2.3 0 4.8.7 7.2 1.9 7.6 4.1 12.4 7.7 17.4 3.6 4.8 11.5 11 17.3 13.6 1.9.8 3.4 1.3 4.8 1.7 6.8 1.5 13.4 2.5 20.3 3.4 1.1.2 2.2.3 3.4.5 3-6.4 5.6-12.5 6.6-19.1 1.2-8.1-2.6-25.8-5.1-31.4-2.1-4.6-9.5-11.4-15-15.7-.7.4-1.2 1-1.9 1.6-2.3 2.1-5.5 5-13 4.1-2.3-.2-5.9-1.5-9.1-3 0 2-.1 4.1-.4 7.1-.2 2.3-2 6.5-3.2 8.1-1.7 2.3-4.4 5.1-8 5.4-1.8.1-3.5-.3-5.1-.9zm93.6-50.7c-6.3 0-15.6-1.4-29.7-5.7-6.4-1.9-12.5-4.2-17.3-6.3-8.2-3.6-9.5-5.6-10-7.1-2.1-5.6 1.9-18.1 9.8-41.4 5.3-15.7 11.4-33.4 12.5-44a3.9 3.9 0 0 1 4.2-3.5c9.9.7 18.8 4.1 28.2 7.7 4.1 1.6 8.3 3.2 12.6 4.6 1.4.4 10.9 4.5 13.2 9.4 2.1 4.4 6.4 18.7 6.5 22.7 0 1.6-.8 4.1-5.7 18.2-3.6 10.4-10.3 29.7-10.3 33.2.6 3.6-1.4 8.3-3.5 9.8-1.4 1.1-4.5 2.4-10.5 2.4zm-49.6-22.3c2.4 1.8 12.7 6.4 26.9 10.4 15.7 4.3 25.6 4.7 28.5 3.3.3-.6.6-1.7.6-2.1-.7-3.6 2.2-12.8 10.6-37.2 2.3-6.5 4.8-13.9 5.2-15.7-.2-2.7-3.8-15.1-5.7-19.1-.8-1.4-6.2-4.5-8.5-5.2-4.6-1.5-8.9-3.1-13-4.7-7.6-2.9-14.8-5.7-22.2-6.8-2 11.3-7.2 26.7-12.3 41.7-4.6 12.9-10.6 30.7-10.1 35.4zm63.7 10c.1 0 .1 0 0 0zm107.8-21.2c-1.7 0-4.6-1.5-17.2-10.6-1.4-1-14-10.1-15.2-11.6-2-2.5-16.9-42.8-18.4-49.6C195.9 18.8 197 12 201 7c5.4-6.7 13.8-7.1 15.4-7.1h.1c5.8 0 12.1 3.7 15.4 7.5.9 1 1.3 1.9 6.3 15.9 3.9 11 10.6 29.4 12.8 32.6.3.4.5.9.6 1.3.6 2.7 4.2 29.3 1 39-.4 1.3-1.5 2.3-2.9 2.6-.4.3-.7.4-1.1.4zM222.5 72c2.8 2.3 16.1 12.1 23.2 16.8.6-9.3-1.1-24.9-1.9-29-2.7-4.6-7.4-17.5-13.3-33.7-2-5.6-4.3-12-5-13.6-2.3-2.4-6.4-4.4-9.1-4.4-.2 0-6 .1-9.2 4.1-2.4 3-2.9 7.6-1.6 13.7 1.6 7 14.6 41.1 16.9 46.1zm119 66.1c-6.5 0-12.3-.8-13.7-1.6-9.5-5.7-14.1-12.4-15.9-23.2-.7-4-1.6-14.1 3.4-21.6 3-6.5 15.4-15.6 28.5-15.8 4.4-2.7 24.1-19.4 26.4-21.4.6-.6 2.6-2 5.6-.3 2.5 1.4 7.6 5.9 11.4 9.4 8.9 8.2 9.4 9 8.9 11.4-.2 1.1-.2 1.1-6.5 8.6-4.3 5.1-12.4 14.7-13.4 16.4-1.7 2.9-2 6.2-2.4 9.9-.2 1.9-.4 3.9-.8 6.1-1.5 7.9-6.9 14.1-11.2 17.8-3.6 3.2-12.5 4.3-20.3 4.3zm-9.9-8.7c4 1 21.8 1.1 25-1.7 3.3-2.9 7.5-7.6 8.6-13.3.3-1.8.5-3.5.7-5.4.4-4.3.9-8.7 3.4-13.1 1.1-1.9 5.5-7.2 14.2-17.6 1.2-1.5 2.5-2.9 3.5-4.1-3.4-3.4-10.1-9.5-13.5-12.1-6.3 5.5-24.2 20.6-27.8 21.5-.3.1-.7.1-1 .1h-.4c-10.5 0-20.3 7.9-21.7 11.3-.1.3-.3.5-.4.8-2.5 3.5-3.4 9.5-2.3 16.1 1.3 8.4 4.5 13.1 11.7 17.5zm44.1-69.1l-.2.2.2-.2zm15.1 170.8c-6.3 0-12.5-1.8-15.5-3.4-1.1.7-2.4 1.3-3.9 1.2-5.8-.2-12.7-8-13.4-11.5-.4-2.1.1-4.1 1-5.8-5.4-9.5 1.2-26.8 3.4-29.6 1.3-1.7 3.7-2.4 7.7-2.4 2.8 0 5.9.4 8.4 1.1 1.5.4 2.8.9 3.9 1.5.6-5.7 3.2-11.3 5.3-13.2 4.3-3.8 9.9-6.1 15.4-6.4 2.7-.2 5.3 1.7 8 3.6.7.5 1.8 1.3 2.6 1.8.9-.5 1.9-.7 2.9-.4 5.3 1.2 10 12.4 9.8 16 .1 1 .9 4.7 1.4 6.7.6 2.5.9 3.8 1 4.6.1 1.4-.4 2.8-1.4 3.9-2.9 3-10.5 3.8-11.9 3.7-.3 0-.6 0-.8-.1 1 3.9 1.5 9-.9 13.4-1.5 2.9-9.6 12.3-15.3 14.2-2.3.7-5 1.1-7.7 1.1zm5.3-8.8c2.8-.9 9-6.4 9.7-10.5 1.9-3.5-1.2-16.2-1.3-16.7 2.7-2.5 7.9-8.3 9.4-9.3 1.3 2.9 1.3 4.5 1.3 7.7 0 .1 4.7.1 5.4-.6-1.5-3.4-.4-4.5-1.5-7.6-.5-1.5-1.4-2.5-2.1-3.3.5-1.4 2.5-1.6 3-3-.2-.5-2.4-2.1-3.8-3.5-1.8.1-2 1.7-3.1 1.3-.9-.8-4-5.1-8.8-5.6s-8.6 1.7-11.2 3.8-5.5 10.5-.7 17.9c-1.5 2.4-11.5 9.2-17.3 13.4-3.9-5.8-.7-13.2 2.3-16.8-2.3-.8-5.2-2.3-7.6-1.9-5.8 5.5-6.7 15.8-1.9 25.1-.8.9-2 1.8-2.3 2.8.2 1 1.2 2 2.3 3.2 1.4 1.6 2.8 2.8 3.4 2.6.2-.1 2.3-2.5 3.6-2.5 2.3-1 9.3 8.5 21.2 3.5zm-16 .5c.1 0 .1.1 0 0zm46.4-39.3zm-28.5-.1c.4-1.6 1.5-3.4 2.7-4.6.5-.4 4.8-2.6 7.6-.1.3.2 1.3 1.2 1.3 1.5s-8.9 7.5-10 8.3c-1.9-2.6-1.9-4-1.6-5.1zm-.2 15.5c2.5 3.4 1.2 11.3.8 12.1-.6 1.1-4.3 5.2-7.2 5.4-5.9.4-9.8-2.6-10.9-4.2 1.3-1.1 14.7-10.1 17.3-13.3zm-116 111.3c12.3 3.9 40.6 11.5 40.6 12.5s-5.4.5-10.5.4c-2.3-.1-42.6-.2-56.3 1.2-1.9.2-3.2-.2 1.5-3.1 1.8-1.1 3.5-2.1 4.8-3.6-.2-.4 2.4-3.7 1.5-7.1-.3-2.2-1.4-6-2.8-7.6l21.2 7.3zm-83 13.8c-1-.5-1.9-1.1-2.7-1.9-.2-.3-.4-.5-.7-.7-3.8-4-4.9-8.1-2.1-13.2.4-.4 2.3-2.8 2.4-3 .5-.4 5.5-4.2 4.7-3.6-.3.2-6.4 4.3-20.1 7.3-9.4 2.6-19.2 2.8-28.7 5.1-.2.1-10.7 1.6-19.7 4-6 1.6-11.3 4.4-12.3 5.3-1 1.6 2.2 1.1 2.6 1 .7 0 31.4.1 33.1 0 1.9.2 41.2.6 41.2.6 1.4-.1 3.5-.3 2.3-.9z"/>
    <path class="uk-fill-default" opacity=".04" d="M226.9 224.8v-.9c0-1 0-3.4-.7-4.7-.6-1.1-1.8-1.2-2 0-.2 1.8-.5 3.5-.7 5.3-.7 1.8-.9 3.7-.9 5.7 0 .5.2 1.8-.1 2.2-.5.9.6 1.8 1.3 1.4.3 0 .7-.1.9-.5.8-1.4 1.4-2.9 1.8-4.4.2-.2.3-.4.3-.7v-1.5c.1-.7.1-1.3.1-1.9zm28.4-39.9c-.9-.2-1.8-.4-2.7-.7-.5-.2-1-.3-1.5-.5.3.1.6.1.9.2l2.6.3.7.7zM207 159.2s0-.1 0 0c-.3.3-.2.2 0 0zm-17 53.7c-.1.5 0 0 0 0zm98.6 100.2c2-.2 4.3-2 6-2.9-.1-.1-.2-.2-.3-.2s.1-.3.3-.3c.7-.2 1.3-1.1 1-1.8-4.3-10.3-2.5-21.6-2-32.4.5-11.4-.5-22.9-3-34a133 133 0 0 0-5.6-18.3c-.3-.8-1.6-1.1-2.5-.9-.5.1-1.6-11.8-2.4-15.7-2.4-10.9-6.6-20-10.6-30.1-1.2-3-2.2-6.1-3-9.3-.4-1.7-2.8-1.2-2.9.4-.2 3.7 1.9 6.8 2 10.4 0 1.2-.3 2.6-1.2 3.5-.7.7-2 .9-2.8.2-.4-.3-3.1-1.6-4.1-2.2-3.6-2.2-7.4-4-11.2-5.8-6.9-5.6-13.7-11.3-21.8-14.9a41.2 41.2 0 0 0-10.9-3.1c-.1 0-.7-.6-2-.2-.8-.1-2.9 1.6-3.1 1.5-.8 5.2-9.7 11-10.5 11.8s-1.7 1.6-2.8 1.6c-1.3 2.7-3 5.5-4.6 8.1-1 1.6-2.8 2.9-3.8 4.6-.9 1.5-1.7 3.2-2.4 4.8-1.4 3.2-2.8 6.4-4.9 9.2-.5.6-3.2 5.3-3.7 5.7.7 13.3-4.2 52.1-3.8 56.8.4 3.8.7 7.7 1.1 11.5.1.4.1.9.2 1.3v.3c0 .2.1.4.1.6.1.9.3 1.9.5 2.8.3 1.9.7 3.9 1.2 5.8.7 2.9 3.2 12.6 3.3 12.7.4.7 1.8 2.9 2 3.1 1.3 1.3 1.6 3.2.9 4.9-.6 1.5-2.3 2.9-4.1 2.7-.2 0-1.5.1-1.9.2-.9.2-3.1.8-3.3.8-.3-6.7-7.1-26.1-7.1-25.6-.7 0 2.1 18.9 2.6 21.9-.1-.3-.2-.7-.4-.9-3-3.3-4.7-7.5-5.9-11.7-.1-.4-.1-.8-.2-1.2.2-.3.3-.7.3-1.2-.3-2-1.1-12.4-1.9-12.6-.7-.2-1.7.3-1.8 1-.8 4.9-1.8 10-.5 14.7.8 5.4 5.7 12.2 11.9 15.6 1.1 1.3 1.8 2.7 4.4 4.1-.4.1 12.7-1.3 22.3-5.8 4-1.4 4.9-2.7 7.8-4.4.8-.5 3.5-.9 3.9-5.7-.1-.6.3-8.2.1-10.3-.1-1.7-.8-5.3-1.2-5.8 1.1 1 4.8 5.2 5.5 4.5s-2.5-4.1-3.3-5.1c-11-13.9-20.3-29-23-46.1-1.1-2.7 3.9-7.4 6.2-15 .2-.1 1.1-1.2 1.4-1.2.7 0-2.6-3.4-2.7-3.5.4-.8 3.4-4 11.6-6.9.8-.2 4.4-.1 5.4.2.5.3.9.6 1.3 1.1 1 1.6 3.6.1 2.6-1.5-.7-1-1.6-1.8-2.7-2.4-.1 0-.1-.1-.2-.1-.1-.5-.5-1-1-1.2-1.4-.4-2.8-.4-4.1-.1-3.7-.5-7.4-.3-11 .8-.2.1-.4.1-.5.2-.5-.1-1.1-.1-1.6-.2-.9-1.2-2.5-4.1-2.5-6.2 1.1-3.4 2.7-6.6 4.3-9.6s3.5-5.9 5.8-8.4c2.4-2.6 5.5-4.6 8.1-7 2.9-2.7 5.2-6.1 5.4-10.2 0-.8-.4-1.6-.8-2.1.7.7 22.6 13.5 28 17.4 3.5 2.6 8.8 5.1 13.8 8.2l2.6.3c.2.3.5.5.7.8-.9-.2-1.8-.4-2.7-.7 4 2.5 7.9 5.4 10.5 9.1 4.5 8.1 9.1 16.2 13.6 24.3.1.3 3.4 8.1 3.4 8.2-.3 7.9-1.1 15.3-3.5 23-.7 2.2-1.5 4.3-2.4 6.3-5.3 6.7-10.3 13.6-15.2 20.6-2.3 3.4-5.8 2.1-6.3 10.9-1 4-.9 11.7.4 12.2.1.5 4.3 2.2 10.3 5.8 5.8 2.5 24.9 8.3 24.9 8.3zm-39.4 11.7c-5.3 0 33.9 10.8 34.8 10.8 15.9 0 33.1 4.5 33.1 4.5 26 1.7 31 2.1 35.5 3.8.5.2 5.4 4 6.4 11 2.5 17 3.1 28.5 3.4 32.9.6 9.3 1.8 19.8 2.4 29.1.6 9.6 2.3 19.4 3.7 28.9 1.5 10.5 4.5 19.6 7 30 .4 1.6 2.1 2.5 3.6 2.1 1.6-.4 1.9-2.2 1.5-3.8-1.9-7.9-1.2-64.4-1.9-83.7-1.9-49.7 1.1-64.7-3.2-66-2.4-.7-6.6-1.3-9-1.2-1.9.3-117.3 1.6-117.3 1.6zM190 212.9s-.1.5 0 0zm0 0s-.1.5 0 0zm65.3-28c-.9-.2-1.8-.4-2.7-.7-.2-.1-.4-.2-.6-.4l2.6.3c.2.3.4.5.7.8zm9.3 18.6c-1.7-1.3-3.7-1.9-5.8-2 0 0-.1-.1-.2-.1-1.3-.8-3.9-1.6-5.9-1.6-4.2 0-8.4 5.3-8.6 8.4 0 1.1 1.3 1.9 2.2 1.3 2.9-2 6.2-4 11.7-4.5 2.2-.3 4.2 0 5.3.7.7.5 1.4.4 1.8-.2.5-.8.2-1.6-.5-2zM242.8 436c-3.9.1-9.4.1-14.8-2.9-3.6-2-4.9-5.1-4.9-5.1-.1-.4-.7-2.2-.4-6.5.4-4.1 1.4-4.2 2.2-5.5 0 0 2.1-2.2 4.3-3.7.8-.5 2.3-1.9 7.3-3.7 1.5-.5 2.5-2 2.1-3.6-.4-1.5-16.3-2.9-21.4 13.9-1.2 4-1 8.3.7 12.2 1.8 4 5.4 6.7 9.4 8.2 4.8 1.9 18.1-1 18.1-2.6s-.9-.8-2.6-.7zm67.8-161.1c-.6-3.2-1.4-6.8-2.7-9.8-1.3-3-6.3-12.4-6.4-12.3-.5 1 .3 3.7.5 4.8.4 3.1 1.2 4.9 2.5 7.8 1.2 2.9 1.7 6 2.9 8.9 3.2 7.9.7 21.3 1.3 18.9 1.5-6.5 3.2-11.7 1.9-18.3zM227.1 16.2c-1.2-2.4-2.8-4.5-4.7-6.3-.6-.6-1.4-.5-2.1 0-2.7 2.2-4.7 5.3-5.4 8.7-.3 1.7 1.9 2.5 2.7 1.3 1.5-.5 6.9-1.6 8.2-1.5 1.2.1 1.7-1.3 1.3-2.2zm-80.6 54.3c-3-1-5.9-2.1-8.9-3.1-1.5-.5-5.6-2-5.6-2-.2-.1-.5-.2-.7-.3.1-.3 3.8-11.7 6.9-16.4 1-1.6-1.5-3.1-2.6-1.5-3.4 5.3-6.2 11.4-7.3 17.6-.3 1.8.7 2.6 2.2 3.2 1.7.6 3.3 1.2 5 1.8l10.2 3.6c1.8.6 2.6-2.2.8-2.9zm-15.2 51.1a92.7 92.7 0 0 1-50.2-13.8c3.1-12.7 7.8-40.4 7.3-38.6-3.7 12.5-12.8 35.9-10.7 40.6 2.2 4.9 27.5 12.5 41.3 14.1 4.1.5 7.9-.1 12-.2 1.9.1 2.2-2.1.3-2.1zM418.5 183c-.3-.3-1.1-1.5-1.1-1.5.2-.1 2.9-1.9 2.9-2.4 0-.8-3.7-3.4-3.9-3.7-.5-.5-2.2 1.2-2.6 1.6-2.4-3.9-7.3-6.1-11.9-5.5-5.4.6-10.8 4.3-11.7 9.8-.3 1.9-.6 4.1-.1 5.9.2 1.2 3.7 6.2 3.7 6.2-3.2 2.4-6 4.9-9.2 7.3-3 2.2-6 4.5-9.1 6.7 0-.1-1.8-4.3-1.8-4.7-.6-9.9 4.5-13.3 3.2-13.6-1.6-.3-4-1.3-5.6-1.6-.3-.1-1-.2-1.9.7-6.3 6.5-5.6 16.7-1.2 24.4l-2.3 2.3c-.8.9 3.6 4.7 4.6 5.8.7.8 1.5 0 2-.7.9-1.2 2-1.6 3.3-1.6 1.3.5 9.1 6.7 16.3 4.8 4.9-1.3 9.5-4.4 11.3-6.8 2.6-4 3.3-7.4 3.4-8.9.1-.5-.1-9.5-2.1-12.3.2-1.2 7.4-7.4 9.5-9.8.6 1.1 1.5 5 1.5 6.2 0 .6-.2 1.5.5 1.6.6.1 4.5-.1 4.4-1.4-.1-1.9-.9-7.7-2.1-8.8zm-20.4 15.5c.1.4.3.7.6 1 0 .1 0 .3.1.5 1.6 4.5 1.3 9.5-1.1 13.7-.1.1-.1.2-.1.3-2.9 1.7-6.2 2.8-9.5 2.3-3.2-.5-5.7-2.7-8.6-4 1.8-1.6 15.4-11.2 18.6-13.8zm1.3-9.9c-1.1-1.6-2.3-3.6-1.8-5.6.4-1.7 2.7-3.8 4.1-4.8 2.9-1.6 6.8-.7 8.4 2-1.3 1.2-9 6.7-10.7 8.4z"/>
    <path class="uk-fill-default" opacity=".16" d="M260.6 302.9c-1.3-1.4-5.8-3.5-7.7-4.9-.7-.5.4-15.8.7-16.3 0-.1 6.5-7.7 8.8-10.8 8.8-12.1 14.9-20.1 16.8-36.7 0-.3.9-7.7 1-7.9-.1-.1-9-21.7-17.2-33.4-3 0-6.4-.3-10.8-.3-1.3 0-1.3-2 0-2 2.9 0 6.6 0 9.1.1-.1-.2-.7-.9-.7-1.1-3.2-2.6-6.5-5.2-9.7-7.8-.6-.5 6.4 3.8 7.1 4.3 0 0 5.4 2.1 5.4 2.5 8.9 11 15.5 23.8 19.1 37.5.1.4.1 1.6.1 1.9.2 4.6-.3 9.2-1.4 13.7-2.5 10-13.4 32.2-13.8 33.2-1.1 5.3-2.9 12.6-.5 17.5 1.3 2.7 2.6 4.1 4.7 6.3 2.3 2.3 10.8 11.8 10 11.7l-21-7.5zm-54.1-23.3c-.1-.4-15-18.1-16-19.5-8.4-11.6-9-18.7-11.6-36.4-.1-.5-1.3 1.6-1.8 1.7 0-.3-.7 4-1 3.9-.2 0 1.3-13-.3-22.4-.1 5.5-2.8 36.7-2.7 37.3-.1.2 0 19 .7 22.4 1 11.4 5.8 24.9 12.4 32.4.7.8.7 1.7 1.5 1.9 1.8-.3 0-2.8-.8-4.3-1.8-3.5-4.1-8.4-5.4-13.3-.9-3.4.3-2-.7-6.4-2.4-10.5 1.6-9 2.2-9.2.3-.1 3.1 4 3.4 4 .4.5 4.6 8.6 4.8 7.4.1-.4 1.4.1.3-2.6 1 1.1 3.5 3.2 3.9 3.5 5.4 4.3 1.5.4 2.5 22.7 1.1-.6 7.3-3.8 8.6-4.3 2.1-6.8 1.4-11.1 0-18.8zm-6.9-7.2v.3l-.1-.1c0-.1 0-.2.1-.2z"/>
    <path class="uk-fill-default" opacity=".2" d="M208.5 211.1a5.6 5.6 0 0 0-6.6-1.9c-1-.1-4.2 2.2-3.5 4.4 0 .1-.1 3.1 3.1 3.4.8.4 1.8-3 2.6-3.7 0-.1-1.1-1.9 1.1-2.2.3.1.5.2.7.3.1 0 .1.1.2.1.9 1.1-.1 2.6-.1 2.9-.3.7-.6 1-.9 1.6-.2.4-1.6 1.1-1.1 1.3.9.4 2.9-.3 3.5-1 .1.1 1.8-2.9 1-5.2zm53.6-1.4c-.9-1.6-3.9-1.7-4.2-1.5 0 0-2.5.9-3.6 1.5-.9.7-1.1 3.1-1 3.9 0 1.3 1.9 1.6 3.1 1.7.8.1 1.2-.9.8-1.5-.3-.5-.3-1.1-.1-1.5.2 0 .8-.2.8-.2.8-.1 1.4-1.4 1.4-1.5 1.3-.4 1.2.7 1.1.8 0 .1 0 .6-.3.7 0 .2.1.5.2.6.1.4 0 1-.3 1.2-1 .8 0 1.7 1 .9 1.7-1 2.5-3.6 1.1-5.1zm-54.4-20c-8.1 0-14.1.8-20.5 5.8-1 .8 1.2 0 2.4-.4 7-2.5 10.6-3.5 18.1-3.5 1.3.1 1.3-1.9 0-1.9zm37.8 68.4c-2.5-.1-7.6-1.1-8.1-1.1l-1.1-.3c-1.3-.2-2.5-.2-3.8 0-.7-.1-1.3-.1-2-.2-.8-.2-2.9-.3-3-.2-1.1.1-6.9 1.7-8.5 2.1 0 0-1.6 0-1.8.1-.5.2-3.1.1-3.9-.1 1.7.7 2.2.9 3.1 1.3.5.2 3.9 1.3 4.7 1.3 2.3.5 6.2-1.9 6.8-1.9 1.2.2 11.4 1.2 12 1 .3-.1 4.1-.4 5.4-.9 3.3-1.5 1.4-1.2.2-1.1zm-9.4 12.9c-.4.2-2.5.8-3 .8-1.8-.1-3.6-.4-5.4-.7-.5-.1-2 .4-2.5.3-1.3-.2-1.2 1.8 0 2 2.6.3 5.2 1 7.7 1.9.6.2 2.1-.3 2.3-.5 1.6-1.7 2.3-4.7.9-3.8zM79.4 202c-3.4-.2-5.3-3.3-6.6-6.2.8-1.9.9-4.4-.4-6a5.8 5.8 0 0 0-5.8-2c-.4.1-5.7 1.1-4.6 6.3.6 2.9 3.3 3.8 6 3.7 1 3.5 1.6 8 2.6 11.5.2.8 1.8.7 2.5.1 2-1.4 6.7-4.6 7-4.7 1.5-.6.6-2.6-.7-2.7zm40-144.6c-4.6-.7-14.2-1.6-14.2-1.6-.2 0-1.9-.1-2.2-.1-.5.2-1 5.5-1 6.6 0 1.5.3 3 1.5 4 1.4 1.3 3.9.8 5.7 1.1 2.2.4 4.3.9 6.5.8.5 0 1.1-.6 1.3-1.1 1.1-2.6 2.2-5.1 3.4-7.7.2-.5 0-1.8-1-2zm127.1 28.1c0-.1-.3-3.9-.4-4.9-.3-2.8-2.7-1.6-3.4-1.4-1.2.4-3.3 2.2-4.2 2.9-1 .8 4.7 4.3 5.6 5.2 1.3 1.3 3.1-.3 2.4-1.8zM219.5 9c-3.7-.9-8.5.2-10.9 3.1-2.7 3.2-2.7 7.9-2.6 11.9-.1.1-.6 3.5 1.1 2.7 2.8-1.3 7.5-4.9 7.7-5 .5-.3 1-1.9.7-2.5-1-2.5 2.3-6.9 2.3-7.1.4-.1.8-.1 1.2-.1 1.8-.1 2.1-2.6.5-3zm163.3 67.3c-2.5-2-8-7.1-8.5-7.4-.6-.4-1.7-.2-2 .5l-.6 1.5-1.5-1.2c-1.5-1.2-3.4.7-2.1 2.1.5.5.9 1 1.4 1.5-.7 0-1.3.5-1.4 1.1-.1 0-.9.2-1.2.3l-.3-.3c-1.4-1.2-3.4.7-2.1 2.1 1.2 1.4 4.4 4.4 4.2 4.9-.5-.1-3.6 1-3.7.9-1.7-1.1-3.4-2.3-4.9-3.7-1.3-1.2-3.1.3-2.3 1.8.5 1.1 1.2 2 2 2.9-.1.5-.1 1 .3 1.5.5.5.7 1.2.6 1.8-.3.3-.6 1.6-.8 1.8-1 1 .9 2.5 1 2.5 1.7 1.5 3.3 3.1 5 4.6-.3.5-.8 1.7-.9 1.8-2 3.5-1.5 7.5-1.5 11.4-.1 3.5-1 6.7-2.9 9.6-3.9 6.2-10.8 9.6-18.1 9.6-4.4 0-8.8-1.1-12.7-3.2-1.7-.9-3.2 1.7-1.5 2.6 7.5 3.9 16.6 4.9 24.5 1.4 6.6-2.9 12-9.3 13.3-16.5.4-2.2.3-4.5.3-6.7-.1-6.3 3.5-10.4 4.2-11.4 1.5-2.3 10-12.9 12.3-15.8.3-.5.5-1.5-.1-2zm-51 27.4c-.2-.5-.5-.9-.9-1.2-.2-.1-2.5-.8-3-.3-.1.1-.8.2-1 .3-.4 0-.9.3-1.2.7-.4.6-.5 1.4-.3 2.1.1.5 1.5 1.6 1.9 1.8 2.6.7 5.5-.6 4.5-3.4zM89.1 221.9c-.5-.7-1.3-.9-2-.5l-1.8.8c-.2-.1-18.5-.9-26.3-5.2-7.5-4-13.6-10.2-17.7-17.7-2.3-4.2-3.9-8.7-4.7-13.3-.4-1.9-3.2-1.1-2.9.8 1.6 8.7 5.4 17.6 11.3 24.1 6.3 6.8 15 10.9 24 13.1 4.9 1.2 16.7 1.9 17.4 1.7.6-.3 3.1-3.2 2.7-3.8zM224 65.4c-4-11.6-7.9-23.2-11.9-34.8-.6-1.6-4.1.5-3.9 1.3 4.1 11.9 8.4 24.4 12.5 36.2 2.2 6.3 3.6-1.9 3.3-2.7zm11 178.2c-.1-.4-.4-.8-.9-.8s-2.4.4-2.7.4c-4.6-.1-6.6-1.6-6.8-1.7-.6-.4-1.7-.4-1.7.3.3 3.2 6.7 3.8 8.6 4.2.5.1 2.2-.9 2.4-.9 1 .2 1.5-.8 1.1-1.5z"/>
    <path class="uk-fill-default" opacity=".9" d="M217.3 258.6c4.1-.6 8.7-4.1 12.9-2.2-4.4-.2-8.5 3.2-12.9 2.2zm5.8 12.4c1.1-.1 2.1-.5 3.2-.5 1.2 0 2.4.4 3.6.6 2.6.5 5-.3 7.4-.9a9.7 9.7 0 0 1-6.7 2.2c-1.2-.1-2.3-.6-3.5-.9-1.3-.3-2.7-.1-4-.5zm43.9-63c-2.9-1.6-6-2.9-9.4-2.6-3.4.4-6.6 2.3-9.3 4.4-.6.4-2.5 1.3-1.6 1.9.5.3 1.3.3 1.9.6.7.3 1.3.7 1.9 1.1 2.8 1.8 5.7 3.8 9.2 3.6-4 1.3-7.4-1.1-10.8-2.7-1.3-.6-3.6-.5-4.3-2-.8-1.9 1.4-3.3 2.7-4.2 2.9-2.2 6.6-4.1 10.3-4.2 3.6-.1 6.9 1.7 9.4 4.1zm-18.5 6.5c1.1.3 1.9 1 2.8 1.8.9.8 1.9 1.4 2.9 2.1-2.4-.4-4-2.4-5.7-3.9zm-33.8-6c-2-.3-3.8-1.5-5.7-2.4-2.1-1-3.8-.6-5.9-.1-2 .4-4 1-5.8 2-2 1.1-3.9 2.6-5.9 3.8 1 1 1.4 2.3 2.5 3.3.9.9 2.1 1.5 3.2 2.3-2.3-.6-4.1-1.3-5.6-3.2-.6-.7-1-1.3-1.9-1.4-1.3-.2-2.7.4-4 .5 2.6-1.6 5.1-3.1 7.5-4.9 2.3-1.8 4.6-3.2 7.5-3.8 2.3-.5 5.3-1.3 7.5-.4 2.4 1 4.2 3.2 6.6 4.3zm-27.9-13.1c1.9-3.2 6.1-4.6 9.5-5.6 4.7-1.3 9.7-1.9 14.5-.7-4.5.7-9 1.4-13.4 2.4-3.6.9-7.6 1.6-10.6 3.9zm15.5-41.4c.2-.9-8.8-1.7-9-.7.2-.9 2.6-1.1 3.2-1.1.7 0 1.3.1 2 .2.3 0 4.4.8 3.8 1.6zm.2-1.8c-.9-.8-1.7-1.8-2.5-2.7-.2-.2-1.8-1.9-1.9-1.6 0 .1 0 .1.1.1 0 0-.4-.1.2-.3.7-.1 1.4.4 1.8.8 1 1.1 1.9 2.3 2.3 3.7zm89.9 85.8c-.3-.6-1.6-1.1-2.2-1.6-1-.8-2-1.7-2.8-2.6-1.5-1.7-3.7-3.9-3.9-6.2-.4-5.4-.8-10.9-1.7-16.2-1.6-10.1-5.2-19.5-9.3-28.8-2.3-5.2-4.7-10.4-6.8-15.6 2.9 9.7 7.3 18.9 10.5 28.5 3.1 9.5 4.6 19.5 5.2 29.5-3.1-5.6-5.8-11.5-8.8-17.2-2.9-5.5-5.7-11.3-9.9-15.9 1.9 0 4.3-.6 6.2 0-1.1-1.3-3.4-1.4-5-1.7-.9-.1-2.3 0-3.1-.4-.9-.4-1.8-1.7-2.6-2.3-3.6-2.9-8-4.9-11.9-7.4-4.1-2.6-8-5.4-12.1-8.2-4-2.7-8.2-5-12.4-7.2-2.3-1.3-4.6-2.5-6.9-3.9-1.1-.7-2.2-1.3-3.2-2-.6-.4-1.1-.8-1.7-1.2-.3-.2-1.2-1.2-1.6-1.1.2 0-1.5 3.2-1.7 3.5-.9 1.2-2 2.3-3.1 3.3-2.3 2-4.9 3.7-7.1 5.9 1.8-4.2 3.3-8.5 4.2-13-3.8 12.4-11.9 22.7-16.3 34.8-4.6 12.5-7.2 26-7.1 39.3 0 3.4 0 6.9-.1 10.3-.1 2.8-.3 6-2 8.3 2.5-2.6 2.7-6.7 3-10 .5-4.9.4-9.9.9-14.8.6 6.1 1.3 12.2 2.5 18.2 1.1 5.5 3.7 10.6 6.7 15.3 4.6 7.3 10 14.1 16.1 20.3.4.5 1.2 1 1.5 1.6s.3 1.5.4 2.1c.3 1.6.5 3.2.6 4.8.4 6.9-1.5 13.4-2.6 20.1 4.3-7.6 6.5-17.5 2.9-25.8 6.2 6.4 13.6 13.3 23.1 13.5 4.2.1 9.1-.4 12.8-2.6 3.9-2.3 7.3-6.1 10.4-9.4-1.7 4.5-1.9 9.4-1.7 14.2.1 2.4.4 4.8 1.2 7.1.2.5 1.5 4.4 2.4 3.7-.2-.3-.1-.8-.2-1.2-.1-.5-.3-1-.4-1.5-.3-1.5-.6-3-.7-4.5-.3-3.2-.4-6.4-.4-9.6 0-1.5 0-3 .1-4.5.1-.8.1-1.6.2-2.4.1-.7 0-1.8.3-2.4s1.2-1.3 1.6-1.8c.5-.5 1-1.1 1.4-1.6l3.3-3.9c-.3 3.7-.6 7.5-.6 11.3 0 3.5.6 6.7 2.6 9.6 3.3 4.7 8.8 7.6 13.8 10.2-3.6-3.5-7.9-6.1-11.1-10-3.8-4.6-3.7-10.1-4-15.8-.1-1.5-.1-3-.3-4.6-.1-.9 0-1.2.6-1.9.5-.7 1.1-1.4 1.6-2.1 1.9-2.5 3.8-5.1 5.5-7.7 3.3-4.8 6.5-9.9 8.3-15.5 2.1-6.6 2.6-14 3.2-20.9.4.7 1.2 1.5 1.5 2.2s.1 1.9.2 2.7c.1 2 .3 4 .4 6 .2 4.1.3 8.2.2 12.3-.2 8.2-1.3 16.3-2.1 24.4 1.4-7 2.7-14.1 3.3-21.2.6-7.2.5-14.3.1-21.5.7.8 1.4 1.6 2.2 2.4.5.5.8.7 1 1.4s.2 1.4.3 2.2c.4 2.4.7 4.8 1 7.3.6 5 1.1 10 1.2 15.1.2 9.8-.5 19.6.1 29.3.3 5.6 1.1 11.2 2.7 16.5-1.4-9.4-1.4-18.7-1.1-28.1.3-9.2.5-18.3-.8-27.4-.8-5.1-1.9-10.2-3.3-15.2 1.2 1 2.5 1.9 3.8 2.7.4.2.8.7 1.2.7 0 .2.7 0 .3-.2zm-15 4.3c-1.7 8-6.1 14.7-10.8 21.3-4.6 6.3-9.5 12.4-14.9 18-2.6 2.7-5.4 5.5-8.5 7.7-3 2.1-6.5 2.8-10 3.1-7.8.7-14.1-3-19.8-8-5.8-5.1-11.2-10.8-16.1-16.8-4.9-6-9.7-12.6-12.9-19.7-1.7-3.8-2.3-7.8-3-11.8-.4-2-.7-4-1.1-5.9-.4-2.1-1-4.4-1.1-6.5-.1-1.6.3-3.3.5-4.8.3-2.1.6-4.2 1-6.3.7-4 1.6-7.9 2.6-11.9 1.2-4.6 2.6-9.1 4.4-13.5 1.7-4.2 3.9-8.2 6-12.2.4-.8.8-1.9 1.3-2.6.7-.9 1.8-1.6 2.7-2.3 1.7-1.3 3.4-2.6 5-3.9 2.7-2.3 5.6-5.3 5.7-9.2 1 1.7 3.1 3 4.6 4.2 2.1 1.6 4.3 3 6.5 4.4 4.3 2.7 8.7 5.2 13.1 7.8 4.5 2.7 9.1 5.2 13.7 7.9 4.3 2.5 8.9 5 12.5 8.6-2.7-.2-5.7-.4-8.2.7 2.8.3 5.5.9 8.3 1.2.5 0 1.4-.1 1.8.1.4.2.9 1.1 1.2 1.5.7.9 1.3 1.8 1.9 2.8 3 4.7 5.2 9.8 7.7 14.7s5 9.9 7.9 14.7c.4.7.6.9.6 1.7 0 .7-.2 1.5-.3 2.2-.2 1.4-.5 2.9-.7 4.3-.5 2.7-1 5.6-1.6 8.5zm-27.6 14.3c-1.8.7-3.3 1.4-5.2 1.2-1.7-.2-3.5-.8-5.2-.3 2.2-.3 4.5 1 6.7.9-1.2.6-2.6.7-3.9 1-1.5.4-2.9.6-4.5.2-1.4-.3-2.7-.6-4.1-.5-1.5.1-2.9 0-4.4-.1-1.4-.1-2.6.1-3.9.7-1.2.5-2.4 1.2-3.7 1-1.4-.2-2.9-.9-4.3-1.3-1.5-.4-3-.8-4.6-1.2 3.2 1.5 6.4 3 9.7 4.1 3.2 1 6.8.9 10.1.6 6.3-.5 12.6-2.3 17.3-6.3zm-19.4 4.9c-2.3.1-4.6.1-6.8-.3 1-.3 2-.7 3-1 1.3-.3 2.5-.2 3.8-.1s2.6 0 3.9 0c1.4.1 2.7.5 4.1.7-2.6.4-5.3.6-8 .7zm-54.6-59c1 13.4-.5 26.8-1.2 40.2-.6 12.7-.8 25.8 3 38.2 1.9 6.4 4.9 12.5 8.8 18-16.8-19-14.7-46.2-12.5-69.7.7-8.9 1.6-17.8 1.9-26.7zm-13.7-24.9c1.1-10.1 5.1-19.8 11.4-27.8 3.5-4.5 7.7-8.4 11.9-12.2 4.3-3.9 8.5-7.8 13.1-11.3 4.3-3.3 9-6.3 14.2-8 5.5-1.9 11.3-2 17-1.3 11.1 1.4 22.1 5 32 10.1 5.5 2.8 10.7 6.2 15.6 10.1 2.5 2.1 5 4.2 7.3 6.5 1 1 1.9 2 2.9 3.1.8.9 1.9 2 1.8 3.3 0-1.1-1-2.1-1.7-2.9-.9-1.1-1.9-2-2.9-3-2.1-1.9-4.2-3.6-6.5-5.3-4.4-3.3-9.1-6.4-14-8.9-9.8-5.1-20.5-8.6-31.4-10.5-5.6-1-11.5-1.4-17.1 0-5.1 1.3-9.8 3.8-14.1 6.9-4.6 3.2-8.8 7-13.1 10.7-4.2 3.6-8.5 7.3-12.2 11.4-7.1 8.1-12.3 18.2-14.2 29.1zm217.8 275.3c-.2-14.5.1-29.1.2-43.6.1-14.4-.5-28.8-1.1-43.2-.3-7.1-.5-14.2-.5-21.3 0-3.7 0-7.4.1-11.1.1-2.5.5-5.3-.2-7.8-.8-2.7-3.3-3.9-6-4.1-3.3-.3-6.8.1-10.1.2-7 .2-14.1.4-21.1.5-3.9.1-7.9.1-11.8.2-2 0-4 .1-6 .1-1.1 0-1.7 0-2.7-.4-.8-.4-1.6-.7-2.5-1-7.3-2.9-14.9-5.1-22.4-7.2 2.2-.9 3.7-3.1 4.9-5 .6-1 1.1-2.1 1.9-2.9 2.9-3.1 5-6.9 5.9-11 .7-2.6 2.8-4.9 4-7.3 2.8-5.5 3.7-11.3 4.4-17.4.7-6.4.8-12.9.2-19.3-1.3-13.1-4.9-25.9-7.4-38.8-2.5-12.6-4.4-25.4-8.3-37.7-4.1-12.8-12.7-23.3-21.9-32.9 6.3 7.4 12.5 15 16.8 23.8 4.5 9.2 6.5 19.7 8.3 29.7 2 10.8 3.9 21.6 6.3 32.3 2.4 10.6 4.7 21.2 5.2 32.1.2 6.2-.2 12.4-1 18.5-.8 5.7-3.2 10.7-6.2 15.6 1.4-6.8.7-14.3-1.2-20.9-.9-3.2-2.3-6.3-3.4-9.5-1.2-3.4-2.2-6.9-2.8-10.5 0 10.3 5.7 19.3 6.8 29.4.9 8.3-.2 17.6-6.1 24.1 1.4-2.9 1.9-6.3.7-9.3.1 5.3-1.9 9.6-4.6 14-.5.8-1.2 2.2-2.1 2.7-.6.3-1.1.1-1.8-.1s-1.3-.4-2-.5l-7.6-2.1c-10.2-2.9-20.4-6.2-29.7-11.3.9.6 1.8 1.1 2.7 1.7.9.5 1.8.9 2.4 1.7 1 1.3 1.7 2.8 2.2 4.3.6 1.8 1.4 3.8 1.4 5.7-.1 2-1.4 3.5-2.8 4.8-1.3 1.3-2.8 2.2-4.3 3.2-.7.5-1.5.9-2.1 1.5-.3.2-.6.7-.9.9-.5.3-1.2.2-1.8.2l-14 .3c-9.4.2-18.8.3-28.1.3h-6.9c-.4 0-1.3.2-1.7 0-.2-.1-.4-.5-.6-.6-.6-.5-1.2-.9-1.8-1.4-1.4-1-3.1-1.8-4.4-3-1.4-1.3-2-3.3-2-5.1-.2-7.1 7.3-11.6 12.6-14.8-1.1-.5-3.1 1.1-4.1 1.6-2.2 1.2-4 2.7-6.3 3.6-4.8 2-10 3-15 4.1-1.4.3-2.7.5-4.1.8-1.2.2-2 .6-3.1-.1-1.4-.9-2.4-2.2-3-3.7-1.4-3.2-1.5-6.7-1.8-10.1-.5-5.4-1.6-10.9-3-16.2.3 4.9 1.1 9.8 1.7 14.7.5 3.9.7 8.2 2.5 11.8-4.7-3.1-8.7-8.6-10.5-13.9-2.1-6.2-.9-13-2-19.4 0 4.5-.4 9.1-.2 13.6-6.3-13.5-4.5-28.9-2.1-43.1 1.2-7.3 2.7-14.5 4-21.8 1.3-7.5 2.5-15 3.7-22.5 1.4-8.4 2.5-16.8 2.8-25.3-1.2 10.4-3.5 20.5-5.4 30.8-2 10.3-3.8 20.6-5.7 30.9-1.6 9.1-3.2 18.4-3.1 27.7 0 4.4.5 8.8 1.5 13.1.5 2.1 1.2 4.1 2 6.1.4 1 .9 2 1.4 2.9.6 1.1.8 1.6.9 2.9.5 5.1 3 9.4 6.3 13.1 1.6 1.9 3.5 3.6 5.7 4.7.9.5 1.3 1.6 2.1 2.4s1.7 1.5 2.8 1.8c-8.3 1.5-16.8 2.6-25.1 4.1-7.8 1.4-15.6 3.1-22.7 6.6-1.5.7-3.4 1.3-4.6 2.3-.2.2-.5.8-.7 1-.3.2-1.3 0-1.7 0h-3.3c-4.2 0-8.4.1-12.7.2-3.5.1-7-.1-10.4.3-3.3.3-5.6 2.1-6.6 5.3-1.1 3.4-.6 7.3-.6 10.9 0 4.1 0 8.3-.1 12.4 0 8.5-.1 16.9-.1 25.4-.1 16.9-.1 33.9 0 50.8 0 9.5.1 19 .2 28.5.1 4.7.1 2.3.2 7 0 2.4.1 4.8.2 7.3 0 1.1.1 2.2.1 3.4 0 .3.3 3.4.1 3.4.4-.2.2-1.8.2-2v-4.1c0-2.7.1-5.4.1-8.1.1-5.3.1-3.6.2-8.9l.3-32c.2-21.3.4-42.6.5-63.8v-16c0-2.6 0-5.3-.1-7.9-.1-2.4 0-4.7 1-6.9.9-2 2.6-2.7 4.8-2.9 2.4-.2 4.9-.2 7.3-.3l16-.6c21.3-.6 42.6-.5 63.9-.3s42.6.6 64 .5l64-.3c10.6 0 21.2-.1 31.9-.2 5.3-.1 10.6-.1 15.9-.3 5.2-.1 10.4-.5 15.6-.4 1.6 0 3.7.1 4.7 1.5 1.2 1.6.6 4.3.6 6.2-.2 5.2-.2 10.5-.1 15.7.2 10.8.8 21.5 1.3 32.3 1 21.2.8 42.3 1.3 63.5.2 10.7.6 21.4 1.7 32 0 .2.2 3 .5 3 0-.2-.9-23.5-.9-25.8zM155.3 324c-11.8-.1-23.6-.2-35.3-.1.9-1.5 3.6-1.8 5.2-2.5 2.3-1 4.5-1.9 6.9-2.6 5.1-1.5 10.3-2.5 15.5-3.4 10.6-1.9 21.3-3.2 31.8-5.6 5.7-1.3 11.5-2.8 16.7-5.5-3 2.8-5 6.8-4.2 10.9.7 3.7 3.8 7.9 7.5 9.1-14.8 0-29.5-.2-44.1-.3zm104.9-.5c-2 0-3.9.1-5.9.1 2.1-1 4.5-1.8 6.1-3.5 1.4-1.4 2.2-3.3 3.1-5.1 1.1-2.2 1-4.1.3-6.4-.6-1.8-1.3-3.8-2.8-5.1 18.7 9.9 40.2 12.5 60.1 19.3-20.3.1-40.6.3-60.9.7zm-168.1-106c-1.1 2.8-2.4 5.6-3.9 8.2-.7 1.1-1.3 1.3-2.6 1.3-1.4 0-2.9.1-4.3.1-6.4 0-12.8-1.1-18.8-3.2-11-3.9-20.5-11.5-25.5-22.2-2.8-6-4.1-12.6-4.6-19.2 4.7 2.3 10.5.7 13.5-3.7 3.2-4.8 3.8-10.9 3.3-16.6 6.4 4.9 17.3 6.2 23.2-.3-5.1 6.2-15.3 6.4-21.9 2.6.4 5.1-.4 10.5-3.1 14.9-2.5 4.1-7.8 7-12.7 6.1 1 9.1 4.5 17.9 10.8 24.7 6.1 6.5 14.3 10.8 22.9 13 4.9 1.2 10.1 1.8 15.1 1.6.7 0 1.4 0 2.1-.1s.7-.3 1.1-1c.6-1 1.1-1.9 1.6-2.9 4.9-9.9 6.3-21.1 3.9-31.9a49.6 49.6 0 0 0-15.7-26.4c12.6 9.7 19.6 25.8 18.5 41.6-.4 4.7-1.3 9.2-2.9 13.4zm-8.3-14.8c-1.6 2.1-3.8 3.6-6 5.1l-3.3 2.1c-.9.5-1.9 1.3-2.9 1.3-1.9 0-2.1-3.2-2.3-4.5-.5-2.9-.6-5.9-1.3-8.7.9 1.9 1.3 4 1.8 6 .2.9.5 1.9.7 2.8.1.6.3 2 .8 2.5.4.4.3.3.9.1.4-.2.7-.4 1.1-.6.8-.5 1.5-1.2 2.3-1.7 1.5-1.2 3.2-2.1 4.6-3.4-1.7-.8-3.3-1.9-4.6-3.1-1.2-1.1-2.8-2.5-3.2-4.1-.5-1.7.8-3.2.3-5-.5-1.5-1.8-2.6-3.3-2.8-2.6-.4-5.9 1.3-6.6 4-.8 3.1 2.5 5.6 5.4 5.4-4.2 1.1-8-3.2-6.1-7.2 1.8-3.7 7-5.5 10.5-3 1.8 1.3 2.7 3.5 2.4 5.8-.1.6-.7 1.8-.5 2.4.1.4.8.9 1 1.1 2.4 2.3 4.9 4.1 8.3 5.5zM146.3 81c-3.6 12-7.7 23.7-11.9 35.4-.5 1.3-.9 2.7-1 4-.1.9.4 2.6-.1 3.3-.5.8-2.3.8-3.1 1-1.5.3-3.1.5-4.7.6-6.2.4-12.3-.6-18.3-2.1-5.9-1.6-11.7-3.4-17.5-5.5-2.7-1-5.4-2-8-3.3-2.2-1.1-5-2.2-5.7-4.8-.7-2.7.6-5.8 1.3-8.4.8-2.9 1.6-5.7 2.6-8.5 1.9-5.8 4-11.6 6.1-17.3 4.7-12.7 9.6-25.5 12.5-38.8-3.1 16.4-9 32-14.2 47.7-1.3 3.9-2.5 7.7-3.7 11.6-.5 1.9-1.1 3.7-1.5 5.6-.5 1.9-1.2 3.9-1.3 5.9-.1 1.6.5 2.6 1.8 3.5 1.8 1.2 3.8 2.1 5.8 2.9 3.8 1.6 7.7 2.8 11.6 4.1 7.7 2.5 15.5 4.8 23.7 5.2 2.1.1 4.2 0 6.3-.2.9-.1 1.8-.2 2.6-.4.3 0 1.4-.1 1.6-.3.2-.3.1-1.6.1-2 .2-1.9.9-3.6 1.5-5.3.8-2 1.5-4.1 2.2-6.1 2.9-8.1 5.7-16.2 8.3-24.4 1.3-3.9 2.7-7.9 3.6-11.9.9-4 .3-7.6-1-11.4-.8-2.2-1.5-4.4-2.3-6.6-.6-1.6-.9-3.3-1.8-4.8-.9-1.7-2.5-2.3-4.2-3-2.1-.8-4.1-1.5-6.2-2.4-9.2-3.6-18.3-7.2-27.4-10.9 9.8 3.5 19.5 7 29.3 10.5 2.2.8 4.4 1.5 6.6 2.4 2.2.9 3.1 2.5 3.9 4.6 1.7 4.5 3.8 9 4.8 13.7 1.2 5.9-.6 11.1-2.3 16.4zm-8.2-33c-.8 2.8-1.7 5.5-2.7 8.2-.5 1.3-1 2.5-1.5 3.8-.4 1-1.2 2.1-1.4 3.2-.2 1.2.9 1.5 1.8 1.9 1.3.6 2.6 1.3 3.9 2 2.7 1.4 5.4 2.9 8 4.4-3.4-.7-6.6-2-9.8-3.2-1.8-.7-4.3-1.2-5.6-2.9-.8-1.1-.5-2.3 0-3.5.7-1.5 1.4-3 2.1-4.4 1.5-3.4 3.2-6.5 5.2-9.5zM99.6 76.7c5.3.4 10.5 1.6 15.6 3 4.5 1.2 9.1 2.7 12.7 5.7-9.3-3.2-19.3-4.5-28.3-8.7zm-2.2 5.8c1-1 2.8-.5 4-.3 1.9.4 3.8.8 5.7 1.3 4 1.1 7.9 2.4 11.5 4.5-4.1-.2-8.1-1.2-12-2.4-1.6-.5-3.3-1-4.8-1.8-1.4-.6-3-1.8-4.4-1.3zM95.5 89c4.3.8 8.5 2.2 12.8 3.2 3.3.8 7.1 1.4 9.5 3.9-3.8-1.3-7.9-1.2-11.7-2.3-3.8-.9-7.5-2.4-10.6-4.8zm27.1-31.8c-.9 2.4-1.9 4.8-2.8 7.2-.4 1.1-.9 2.2-1.3 3.3-.2.6-.3 1.6-.8 2 .4-1.1-.9-1.4-1.7-1.6 1.5-3.1 2.6-6.3 4-9.5-.6-.2-1.3-.3-1.9-.5-.8-.2-1.2-.4-1.8 0-.9.7-1.7 1.8-2.4 2.7-1.7 2-3.2 4-4.7 6.1 2.3.4 4.6.8 6.8 1.1-.4.7-.7 2.1.5 2.3-2.5-.4-5-.9-7.4-1.4-1.9-.4-4.4-.7-5.9-1.8-3.4-2.4-1-8.2-.3-11.3 0 2.7-.8 5.6-.1 8.2.6 2.5 3 2.3 5.1 2.8-.9-1.2-1-2.5-.8-3.9s.6-3-.4-4.3c2.1 1.1 1.2 4 1.9 5.8 1.6-2.7 3.7-5.1 6.1-7.1-3.9-.8-7.9-1.3-11.8-1.6 3.2-.4 6.5-.4 9.8-.2 1.4.1 3.3.8 4.4 0 .5-.4 1.1-.8 1.7-1.1.3-.2 1-.3 1.2-.6.1.1.1.2.2.3-.3.1-.6.6-.8.9l-1.2 1.2c1.3.3 2.9.6 4.4 1zm124.2 30.9c-1.4 2.3-5.1-1.2-6.2-2.2-3.1-2.7-6.6-4.9-10-7.3-2-1.4-4-2.8-6.1-4.2-.7-.5-1.6-.9-2.3-1.5-.8-.7-1.1-1.8-1.4-2.8-1.7-4.9-3.4-9.8-5.2-14.7-1.8-5-3.6-10-5.3-15-.8-2.3-1.8-4.7-2.5-7-.7-2.1 0-3.7 1.6-5.1 3.4-3 8-4.8 12.3-6.1 2-.6 4-1.1 6-1.5.8-.1 1-.2 1.3.5.4.8.6 1.8.9 2.7 4.1 11.2 8.2 22.3 12.3 33.5-2.8-6.3-5.5-12.8-8.2-19.2-1.3-3.2-2.6-6.4-3.9-9.7-.6-1.5-1.2-3.1-1.8-4.6-.1-.3-.3-1-.5-1.3-.3-.3-.5-.2-1.1-.1-.8.1-1.6.3-2.4.5-3 .8-6 2-8.8 3.5-1.8 1-4.5 2.1-5.7 3.9-.6 1-.3 1.9.2 2.9.7 1.6 1.2 3.2 1.8 4.8 1.2 3.3 2.4 6.5 3.5 9.8 2.5 7.1 5.4 14.3 7.4 21.6.9-2.5 1.6-5.1 1-7.7 3.3-.2 6.2-1 6.7-4.7 2.2.5 4.5 1.1 6.8 1.3-.9.4-1.8.6-2.8.7-.4 0-2.2-.2-2.4.1-.1.1-.2.9-.3 1-.1.3-.3.6-.5.9a8 8 0 0 1-1.3 1.3c-.6.4-1.3.8-2 1-.4.1-1.6.2-1.8.4-.1.1-.1 1.1-.2 1.3-.1.4-.2.9-.4 1.3-.3.8-.7 1.6-1.2 2.3-.4.6-1.3 1.3-1.1 2s1 1 1.5 1.3c1.5.8 2.8 1.9 4.2 2.9 3.2 2.2 6.4 4.4 9.5 6.8.5-1.8 2.3-3.8 4.3-4 .7-.1 3.4.6 2.5 1.6-.7.8-2.8.6-3.7.9-.7.2-1.4.7-1.9 1.3l-.4.4c-.3.3-.2.5.2.6.3.4 1 .8 1.4 1.2.8.7 3.4 4.1 4.8 3.6 1.1-.4.3-5 .3-6-.3-5.6-.7-11.1-1.1-16.7.6 4 1.1 8.1 1.6 12.2l.6 5.9c-.1 1.7.6 4.1-.2 5.4zm-33.7-56.2c2.7 4 4.5 8.5 6.2 13 1.8 4.8 3.4 9.6 4.6 14.6-2.8-3.9-4.6-8.4-6.3-12.9-1.9-4.8-3.4-9.7-4.5-14.7zm5.7-1.7c2.5 3.9 4.6 8.1 6.4 12.4 1.8 4.3 3.5 8.7 4.4 13.2-2.6-3.9-4.6-8.1-6.4-12.4-1.8-4.2-3.5-8.6-4.4-13.2zm8.5-11.8c-8.1.3-16 4.8-21 11-1.3-3.1-2.2-6.2-1.9-9.6.3-3 1.3-6.2 3.3-8.6 1.9-2.2 5.1-3.4 7.9-3.5 3.2-.1 5.9 1.7 8.4 3.5-2.3-1.1-4.6-2.5-7.2-2.4-2.4.1-5 1-6.8 2.6-3.6 3.1-4.1 9.7-3 13.9 2.6-2.5 5.9-4.1 9.2-5.4 3.5-1.1 7.4-2 11.1-1.5zm159.2 58.1c-5.5 5.2-10.6 10.7-15.3 16.6-5.2-4.5-10.4-9.3-14.2-15 4.1 4.9 9 9.1 14 13 1.2-1.6 2.4-3.2 3.6-4.7-3.1-1.4-5.1-3.6-7.4-6.1-.4-.4-5.5-6.3-5.3-6.4.3-.2 4.1 3.4 4.5 3.7 1.1.9 2.1 1.8 3.2 2.7 1.9 1.6 4.1 3.3 5.6 5.3.8-1 1.6-2 2.5-2.9-3-1.6-5.3-3.9-7.6-6.4-1.1-1.2-2.1-2.5-3-3.8-.2-.3-2.4-2.7-2-3.1 0 0 3.4 3.2 3.7 3.5 1.3 1.2 2.7 2.4 4.1 3.5 2.1 1.6 3.9 3.4 5.3 5.6 1.6-1.8 3.2-3.5 4.9-5.2-4-2.5-7.7-5.5-11-8.9-.8-.8-1.4-1.7-2.2-2.4-.8-.7-1.2-.3-2 .3-1.9 1.4-3.6 3.1-5.3 4.7-3.3 2.9-6.6 6-10.3 8.3-.8.5-3 1.3-2.2 2.4.5.7 1.4 1.4 2 2 .9.8 1.7 1.6 2.6 2.5 4.2 3.8 8.6 7.4 12.7 11.4-3.5-2.8-7.1-5.4-10.6-8.2L352 85c-1.3-1-2.9-2-3.6-3.5-3.4 2.7-8 3-12 4-4.1 1.1-7.9 2.7-10.7 6.1-5.7 6.7-7.1 15.9-4.2 24.1 1.4 4.2 3.9 7.9 7.7 10.2 3.5 2.2 7.9 3.5 12 4 7.7.8 15.5-2.3 19.9-8.8 2.8-4.1 3.6-8.8 4.1-13.6.4-4.2 1.2-8.9 4.6-11.7-3.9 3.8-3.6 9.5-3.9 14.5-.4 5.7-2.2 11.1-6.3 15.2-8 8.1-19.9 8.1-29.6 3.2-10.1-5-14-18.1-10.8-28.5 1.6-5 4.6-9.9 9.1-12.7 4.6-2.9 9.8-2.9 14.9-4.1 1.4-.3 2.8-.8 4.1-1.4.2-.1.8-.3.9-.6.2-.3 0-.4 0-.8 0-.5.3-.9.6-1.3.7-.9 1.8-1.4 2.7-2 1.3-.9 2.6-2 3.8-3 2.8-2.3 5.4-4.8 8.1-7.3 1.8-1.7 4.7-5.5 7.5-3.6.7-1.3 2.1-2.6 3.5-1.6 1.7 1.2 3.1 2.7 4.7 4 1.5 1.2 3 2.4 4.3 3.8.4.5.8.9 1.2 1.4.1.1.8 1.4.8 1.4.1-.2-.3.3-.1.1 0-.1-1.2-.4-1.4-.5-.6-.3-1.1-.7-1.7-1-1.5-1-2.8-2.2-4-3.5s-2.5-2.5-3.5-3.9c-.3-.5-.8-1.3-1.4-1.3-.7 0-1.4.8-2 1.1.2-.1-.3.3-.2.2 1.2 1 2.1 2.3 3.2 3.4 1.2 1.2 2.5 2.4 3.9 3.5 2.7 2.3 5.5 4.2 8.3 6zm-42 36.1c1.6-1.2 3.5-1.9 5.5-2.1-2.8 1-4.9 2.9-6.9 5.1 0-1.3.4-5.9-1.6-6.3-.9-.2-2.6.6-3.4 1-1.3.5-2.6 1.1-3.9 1.7 1.6-2.4 3.3-4.6 3.4-7.6 0-1.5-.8-2.9-.7-4.3.1-1.1.8-1.7 1.7-2.1 5.5-2.9 10.9-5.8 16.3-8.9-2.6 2.4-5.3 4.5-8.2 6.4-1.4.9-2.8 1.9-4.2 2.6-.9.5-3.1 1.2-3.5 2 0 0 .7 3 .8 3.3.1 1.5-.1 2.9-.6 4.3 1.5-.4 3.2-.7 4.3.6.8 1.2 1 2.9 1 4.3zm-17.8-10.5c-1.5 1-1.6 3.2-.1 4.2 1.4 1 3.5.5 4.4-.8.8-1.2.6-2.9-1-3.2-.3 0-3 .4-2.8.6-.5-.3 1.3-1.3 1.5-1.5 1.1-.7 2.6-.6 3.6.3 1.9 1.6 1.2 4.7-.6 6.1-2 1.5-5.6 1.4-6.9-1-.9-1.7-.4-4.5 1.9-4.7zm94.3 90.7c-.2 1.2-2.2 1-3.1 1-.7 0-2.3.5-2.8 0-.7-.7-.4-2.3-.4-3.1 0-1.4-.2-2.8-.9-4-1.7 1.6-3.3 3.4-4.9 5.1-.7.8-1.5 1.6-2.3 2.4-.4.4-.8.7-.8 1.1 0 .5.4 1.4.6 1.9 1.2 4.3 1.8 9 .9 13.5-1.7 7.9-8.8 13.2-16.7 13.5-4.7.2-8.7-1.4-12.6-4-1.9-1.3-3.3-1.6-5 .2-.5.5-1.1 1.3-1.9 1.2-.7-.1-1.3-.8-1.8-1.3l-3-3c-1.3-1.4-1-2.3.3-3.7.2-.2.8-.6.9-.9.2-.4 0-.5-.3-1-.5-.9-1-1.9-1.4-2.8-2.5-6.4-2-13.6 1.4-19.5 1.3-2.1 2.5-3.3 5-2.7s5 1.3 7.5 1.9c-2.2 2.3-4 5.1-4.9 8.1-.7 2.1-.7 4.3-.1 6.4.1.4.3.8.5 1.1.4.7.4.8 1.1.3 3.3-2 6.3-4.4 9.2-6.8 1.4-1.2 2.9-2.4 4.3-3.6.3-.3.9-.6 1.2-1 .6-.8.3-.1.1-.7-.2-.9-1-2-1.4-2.9a14.2 14.2 0 0 1 5.8-17.3c2.7-1.6 6-2.2 9-1.9 3.4.4 6.3 2.6 8.3 5.2.1.1.5.7.7.7.1 0 .7-.6.8-.7.6-.5 1.2-1 2-.6.7.3 1.1 1.1 1.6 1.6.4.4.9.7 1.4 1.1 1 1 1.3 1.6.1 2.5-.8.6-1.6 1.1-2.4 1.5-.1-.2 1.8-1.7 2-1.8.3-.3.8-.5.7-.9-.1-.5-1.1-1-1.4-1.3-.6-.4-1.2-.9-1.8-1.3-.6-.5-.5-.7-1.1-.4-.3.2-.6.7-.9.9-1.5 1.1-2.3-.6-3.3-1.5-2.6-2.5-5.6-3.9-9.3-3.4-2.9.3-5.7 1.7-7.7 3.8-2.2 2.2-3.6 5.2-3.6 8.3 0 2.4.7 4.8 2 6.8.4.7 1.4 1.4 1.2 2.3-.1 1.2-2.2 2.4-3 3.1-1.8 1.5-3.5 3-5.3 4.4-2.9 2.3-5.9 4.5-9.1 6.5-.4.3-1 .8-1.5.7-.5-.2-1-1.1-1.2-1.5-.8-1.4-1.4-3-1.5-4.6-.5-4.3 1.2-8.7 3.8-12l-3.3-.9c-.9-.2-2.1-.9-3-.3-.7.5-1.2 1.6-1.6 2.2-2.8 4.7-3.6 10.4-2.4 15.7.5 1.9 1.2 3.7 2.2 5.4.9 1.5-1 2-1.8 3-.9 1.3.8 2.3 1.6 3.1.7.7 1.9 2.8 3.1 2.9.5 0 1.2-1 1.6-1.4.6-.6 1.4-1.1 2.3-1.1 1.9-.2 3.7 1.5 5.2 2.4 3.5 2.2 7.9 2.8 12 2 7.9-1.5 13.2-8 13.5-15.9.1-2.7-.3-5.3-.9-7.9-.2-1-.5-1.9-.9-2.8-.3-.7-.5-1.3-.1-1.9.4-.6 1.2-1 1.7-1.5.9-.8 1.7-1.7 2.5-2.5 1.9-2 3.8-3.9 5.9-5.7 1.3 1.7 1.8 3.6 1.9 5.7 0 .4.1.9.1 1.3 0 .3 0 .6.1.9-.1.5.1.6.6.4.5.1 1.2 0 1.6-.1.6 0 1.4.1 1.6-.4.2-.4-.1-1.4-.1-1.8 0-.5 0-1-.1-1.6-.1-1.1-.2-2.3-.4-3.4-.2-.9-.5-1.6-1-2.3-.2-.3-.9-.9-.9-1.3 0 .1 1.5 1.5 1.6 1.8.5.9.8 1.9 1 2.9s.3 2 .5 3c.6 1 1 2.1.9 3.2zm-10.4-13.4c-1.1-3-5.9-2.6-8.2-1.8-3.5 1.2-6.2 3.7-4.9 7.6.3.9.7 1.7 1.2 2.5s.4 1.1 1.2.8c.4-.2.8-.6 1.2-.9.6-.4 1.3-.8 1.9-1.2 1.6-1 3.1-2.1 4.6-3.2 1.1-.7 3.5-2.2 3-3.8zm-3.6 1.4c-1.5 1.1-2.9 2.3-4.1 3.7s-2.2 2.8-3.5 4c-1.7-2.7-.7-6.6 1.4-8.8 1.1-1.2 2.6-2 4.3-1.8.9.1 1.8.5 2.5 1 .4.3.8.6.6 1-.1.2-.9.7-1.2.9zm-9 18c-6.7 4.2-13.6 8.2-19.5 13.5 5 3.9 12.3 6.4 18.1 2.5 4.7-3.2 4.8-11.8 1.4-16zm-2.1 14.7c-1.7 1.9-4.4 3-6.9 2.7-2.8-.3-5.3-2.1-7.4-3.8 5.6-4.2 11.9-7.7 16.4-13.3 1.1 4.5 1.4 10.7-2.1 14.4zM237.4 404.1c-9.7-.5-18.8 7-19.4 16.9-.6 9.7 7.5 18.2 17.1 18.2 3.5 0 6.9-1 10.1-2.3 2.8-1.1 5.8-2.6 7.2-5.4-1 2.5-3.3 4.2-5.7 5.4-2.9 1.4-6 2.6-9.2 3.1-5.6.9-11.4-.8-15.5-4.8-6.7-6.4-7.2-17.6-1.4-24.7 4.2-4.7 10.7-7.3 16.8-6.4zm-27.8-191.5c-1.4-5.8-14.3-5.7-12.8 1.1.7 3.1 3.7 4.3 6.6 4.3 2.9 0 7.1-1.8 6.2-5.4zm-2.6 3.1c-.5.6-1.1 1.2-1.9 1.4.5-.3 1-.8 1.1-1.4 0-.1 0-1.6-.3-1.4-.3.2-.4.8-.8 1.1-.5.3-1 .5-1.4 0-.6-.7.6-1.9.3-2.2-.3-.2-1.5.5-1.7.6-.8.6-1.2 1.9-.8 2.9-1.5-.7-3.4-2.6-2.6-4.5.7-1.6 3.3-2.9 4.8-3.2 4.2-.6 5.3 3.9 3.3 6.7zm21.4 27.9c1.1 0 2.1-.4 3.1-.5 1 0 2.1.4 3.1.1 1.4-.3 2-1.4.3-1.6-1.7-.2-3.5.2-5.2.3-2.4.1-4.8-.9-7.2-.6 1.8 1.1 3.8 2.2 5.9 2.3zm32.3-35.1c-2.5-.9-5.7-1.5-7.7.8-1.9 2.3-.9 5.6 1.8 6.6 2.3.8 5.8.9 7.7-.9 2.5-2 .8-5.5-1.8-6.5zm1 5.2c-.3.6-.8 1.2-1.4 1.5.2-.3.8-2.8 0-3 .1 0-.3 2.2-1.5 2.1-1.5-.2-.1-1.5-.1-2.1 0-.4.2-.3-.3-.3-.3 0-.9.3-1.1.4-1 .5-1.5 1.7-1.2 2.8-1.4-.8-2.7-2.3-1.7-3.9.8-1.4 2.7-2.4 4.2-2.6 3.3-.6 4.4 2.5 3.1 5.1z"/>
</svg>