<svg width="600" height="600" viewBox="0 0 600 600" xmlns="http://www.w3.org/2000/svg">
    <path class="uk-fill-primary" fill="#c6e3f7" d="M389 329.1c-3-1.9-6.4-3.1-9.3-5-4.2-2.7-5.1-6-5.3-10.9-.9-21.3-1.3-42.5-1.9-63.8 0-.7-.2-1.2-.4-1.7.8-5.8-4.1-11.2-10.5-12.4-5.6-1-11.6-.6-17.2-.6l-20.8-.3c-27.1-.4-54.2-.7-81.3-1.1-.8 0-1.5.2-2.1.6-13.2 3.5-9.8 23.5-9.7 34 .2 17.5.3 34.9.5 52.4-4.8 7.5-16 7.9-18.6 17.7-2 7.4 4 15.2 11.7 11.7.4-.2.8-.4 1-.7 4.3-.3 8.5-.4 12.8-.4.6.8 1.6 1.3 2.9 1.2 26.7-.7 53.4-1.3 80-2 13.2-.3 26.4-.6 39.5-1 6.6-.2 13.2-.3 19.8-.5 3.5-.1 6.9-.4 9.8-2.1.5 0 .9-.2 1.4-.4 7.5-3.6 2.7-11.6-2.3-14.7zm-3.9 10.1c-5.9.1-26.8.4-32.7.6-10.4.3-93.6.8-122.2.2-5.9-.1-9.4 0-9.7-.4-1.4-.5-1.2-1.9-1.1-2.7 3.2-3.5 18.9-13.9 19.6-14.6.4-1.4 0-34.7.1-58.3 0-11.6 0-20.9.6-22.9 1.4-1 3.7-.6 3.9-.6 12.1-.1 49.8.2 80.1.4 22.4.1 40.7.1 41.7 1.5 1.2 1.6.3 61.2.1 79.5 4.9 2.8 19.5 11.8 21.5 13.2-.2 2.3.2 4-1.9 4.1zM269.7 222.1c-11.5-52.8-24.2-105.3-38.1-157.6-1.3-5 6.4-7.1 7.7-2.1 13.9 52.2 26.6 104.8 38.1 157.6 1.1 5-6.6 7.1-7.7 2.1zm64.5-48.8c-3.2 15.5-5.1 31.1-5.8 46.9-.2 5.1-8.2 5.1-8 0 .7-16.5 2.7-32.9 6.1-49.1 1.1-5 8.8-2.8 7.7 2.2zm134.2-66.5c-35.2 34.6-64 75.2-85.1 119.8-2.2 4.7-9.1.6-6.9-4 21.3-45.2 50.7-86.4 86.3-121.4 3.8-3.7 9.4 2 5.7 5.6zm70.1 116c-48.7 16-98.1 30.2-147.9 42.5-5 1.2-7.1-6.5-2.1-7.7 49.8-12.3 99.1-26.5 147.9-42.5 4.9-1.6 7 6.1 2.1 7.7zM438.2 357.4l-32.9-14.2c-4.7-2-.6-8.9 4-6.9 11 4.7 22 9.5 32.9 14.2 4.7 2.1.7 8.9-4 6.9zm32.2 127.7c-27.3-40.5-57-79.3-88.9-116.2-3.3-3.9 2.3-9.6 5.7-5.7 32.3 37.5 62.4 76.8 90.1 117.9 2.9 4.2-4 8.2-6.9 4zM321.3 517l-16.2-143.4c-.6-5.1 7.4-5.1 8 0L329.3 517c.5 5.1-7.5 5.1-8 0zm-47.2-143.2c-19.4 43.1-41.1 85-65.1 125.7-2.6 4.4-9.5.4-6.9-4 24-40.7 45.7-82.6 65.1-125.7 2.1-4.7 8.9-.7 6.9 4zm-45.8-2.8a365.41 365.41 0 0 0-56.2 48.3c-3.6 3.7-9.2-1.9-5.7-5.7 17.6-18.5 36.9-35 57.9-49.6 4.2-2.9 8.2 4 4 7zm-31.6-35.7c-40.2 14.5-80.4 28.9-120.6 43.4-4.9 1.7-6.9-6-2.1-7.7 40.2-14.5 80.4-28.9 120.6-43.4 4.9-1.8 6.9 5.9 2.1 7.7zm20.5-82.3c-40.7-17.5-81.4-34.9-122.1-52.4-4.7-2-.6-8.9 4-6.9 40.7 17.5 81.4 34.9 122.1 52.4 4.7 2 .6 8.9-4 6.9zm294.2 57.5c-16.9-4.3-34.3-6-51.7-7.6-17.6-1.6-35.2-3.1-52.7-4.6-5.1-.4-5.1-8.5 0-8l54.6 4.8c17.4 1.6 34.9 3.4 51.9 7.7 5 1.2 2.9 8.9-2.1 7.7zm-307-17.9c-37.7-7.3-76-11-114.4-11.3-5.2 0-5.1-8 0-8 39.1.3 78.1 4.2 116.5 11.5 5.1 1.1 2.9 8.8-2.1 7.8zm25.8-73.4c-14.9-11.1-27-25.2-35.3-41.8-2.3-4.6 4.6-8.6 6.9-4 7.6 15.4 18.6 28.7 32.4 39 4.1 2.9.1 9.8-4 6.8zM384 473.8a523.05 523.05 0 0 1-38.3-98.9c-1.4-5 6.4-7.1 7.7-2.1 9.2 33.5 21.7 66 37.5 97 2.3 4.6-4.6 8.6-6.9 4z"/>
    <path class="uk-fill-default" opacity=".04" d="M508 45.3c9.5 9.5 10.1 24.2 7.6 36.9-.8 3.9-8.4 16.3-21.6 16.8-20.2.8-34.3-11.2-33.2-30.8.7-12.8 2.5-25.2 16.8-29.5 10.6-3.1 22.4-1.4 30.4 6.6zm-197.4 108c3.5 6 9.5 8.6 15.2 9.3 10.4 1.3 21.5-2.8 28.8-12.8 3.2-4.5 5.7-10.5 5.1-16.6-.9-8.3-7-13.9-13.1-16.5-10.4-4.5-24.9-4.2-33.8 5.4-6.7 7.2-7.5 22.2-2.2 31.2zM205.1 40.8c2.7 10 13 16.6 22.9 16.1 4.8-.3 9.4-1.9 13.9-3.8 4.1-1.8 8.3-3.9 11.3-7.3 3.7-4.3 4.2-12 2.9-17.6-1.5-6.3-4.3-9.9-8.6-14.3-6.6-6.8-22.9-4.9-24.5-4.5-16.9 3.9-22.4 15.2-17.9 31.4zM79.8 72.6c7.3 4.8 15.8 8.8 24.4 7.8 8.3-1 15.6-6.6 19.7-13.8 4.1-7.2 5.3-15.9 4.4-24.1-.6-5.9-2.4-12-6.7-16.2-2.1-2.1-4.7-3.5-7.5-4.6-30.8-12.3-67.2 29-34.3 50.9zm213.1 485.7c.5 8.5 4.9 16 9.9 22 2.4 2.9 4.9 5.6 7.9 7.4 2.1 1.3 4.4 2.2 6.8 2.6 2.2.4 4.6.3 6.8-.3 2.5-.8 4.9-2.3 7.2-3.8 5.1-3.2 10.4-5.9 15-9.8 4.6-4 8.7-9.5 9.8-16 1.7-10.3-4.4-20.7-12.4-25.1-8-4.4-17.5-4-26.3-2.1-11.2 2.6-25.7 8.5-24.7 25.1zm168.7-157.8c1.2 1.6 2.4 3.1 3.9 4.3 1.9 1.3 4.1 1.9 6.4 2.4 4.6 1 9.3 1.6 14 1.7 2.1.1 4.3 0 6.3-.7 2.3-.8 4.2-2.5 6-4.2 3.2-2.9 6.4-5.9 8.3-9.8 3.4-7.2 1.3-15.7-.9-23.4-2.2-7.6-4.9-15.8-11.6-19.9-3.8-2.3-8.4-3-12.8-3.4-5.2-.4-10.6-.4-15.5 1.4-25.2 9.2-15.6 36.3-4.1 51.6zm19.8 94.1c-9.3 9.8-9.2 35-1.2 45.1 6.6 8.3 19.1 9.7 29.2 6.3 3.6-1.2 7.1-2.9 9.8-5.6 3.7-3.7 5.5-8.9 6.7-14 2.1-9.1 2.3-19.5-3.2-27.1-8-10.7-31.3-15.2-41.3-4.7zM2.3 375.4c-1.7 14.3 11 36.3 24.1 42 11.8 5.2 26.7-1 33.3-12.1s5.4-25.7-.9-37c-1-1.8-2.1-3.5-3.5-5-4.2-4.5-10.5-6.3-16.6-6.8-12.8-1-34.5 3.2-36.4 18.9zm35.1-215c-9.3 9.8-9.2 35-1.2 45.1 6.6 8.3 19.1 9.7 29.2 6.3 3.6-1.2 7.1-2.9 9.8-5.6 3.7-3.7 5.5-8.9 6.7-14 2.1-9.1 2.3-19.5-3.2-27.1-8-10.7-31.4-15.1-41.3-4.7zm78 312.3c7.3 4.8 15.8 8.8 24.4 7.8 8.3-1 15.6-6.6 19.7-13.8 4.1-7.2 5.3-15.9 4.4-24.1-.6-5.9-2.4-12-6.7-16.2-2.1-2.1-4.7-3.5-7.5-4.6-30.8-12.2-67.2 29.1-34.3 50.9zM158 575.2c7.3 4.8 15.8 8.8 24.4 7.8 8.3-1 15.6-6.6 19.7-13.8 4.1-7.2 5.3-15.9 4.4-24.1-.6-5.9-2.4-12-6.7-16.2-2.1-2.1-4.7-3.5-7.5-4.6-30.8-12.3-67.2 29-34.3 50.9zM551.4 186c-9.3 9.8-9.2 35-1.2 45.1 6.6 8.3 19.1 9.7 29.2 6.3 3.6-1.2 7.1-2.9 9.8-5.6 3.7-3.7 5.5-8.9 6.7-14 2.1-9.1 2.3-19.5-3.2-27.1-8-10.7-31.4-15.1-41.3-4.7zM386.3 334.7c-.3-.3-19.7-12.2-20.4-12.7-1.4 0-124 .5-127.3.3-.3.1-19.9 14.7-19.4 14.5 1.4-.3 68.5-.8 72.8-.8.4 0 94.6-.4 94.8-.6.3-.1-.2-.5-.5-.7zm-110.1-89.3c-3.8 1.7-6.6 5-9.2 8.2-1.7 2.9-11.1 16.9-13.8 21.2-.7 1.1-2.1.8-2.7 0-2.1 3.5-4.3 7-6.4 10.5-1.1 2-2.1 2-2.1.7.2-10.4.3-37.7.3-42.3.2-.2 34.2.1 34.6.8.3.8 0 .6-.7.9zm86.4 47.2c-.4-1.7-2.3-1.5-2.3.3.2 5.7-.7 11.4-2.6 16.7-2.3 3.4-5.6 5.9-9.5 7.3-.1 0-.2.1-.2.1l-7.8.9c-2 .2-2.1.9 0 1.1 3.1-.1 20.3-.2 22.4-.3 0-6.1.1-25.9 0-26.1zm-6.4-.6c-.3.6-.7 1.2-1 1.8-.6.1-1.1.5-1.4 1.1-1.6 4.2-3.8 8.2-6.4 11.9-.5.7-.1 1.7.6 2.1.5.3 2.6 0 3-.6 1.5-2.4 6.6-12.3 8-14.8.8-1.7-1.9-3.3-2.8-1.5z"/>
    <path class="uk-fill-default" opacity=".2" d="M361.4 324.7c-4 .1-8.1.2-12.1.2-14.2.2-52.5-.2-57.2-.1l-25.9.3-25.6.3c-3.6 2.2-7 4.6-10.4 7.1-.5.3-.7 0-.3-.3 3.3-2.4 9.8-7.8 10-7.8l14.9-.1 25.9-.3 26-.3c.2 0 .3.1.4.2 3.9.1 7.7.1 11.6.2 14.2.2 28.5 0 42.7-.3.6-.1.6.8 0 .9zm-15.4 4.6l-11.2.2v-.1c-.3-.5-.6-1.1-.9-1.6h2.1c.6 0 .6-.9 0-.9-5.2.1-10.5.1-15.7.2-.6 0-.6.9 0 .9 4.2-.1 8.5-.1 12.7-.2 0 .1.6 1.2.9 1.8l-3.7.1-.4-1.4c-.2-.6-1-.3-.9.2.1.4.2.8.3 1.1-3.4 0-6.8.1-10.1.1-2.5 0-5.1.1-7.6.1-.6 0-.6.9 0 .9 9-.1 18-.2 26.9-.4 2.5 0 5.1-.1 7.6-.1.6 0 .6-.9 0-.9zm19.4-85.5c.1 13.2.3 69.4.1 76.4 0 .9-.5 1.4-1.2 1.4-.8.8-53.3.7-55.6.6 0 0-66.6.1-69.1.2-.7 0-.6-.2-.6-.9.1-2.8.1-10.2.1-10.2 0-.8-.2-41.9-.3-46.4-.1-.2.1-13.6.2-20.9 0-2.1.7-3.2 1.5-3.2 5.1-.2 21.4-.1 21.6 0 .8 0 82 .5 100.1.5 1.6-.2 3.2.8 3.2 2.5zm-58.6 75.4c28.9-.2 55.8-.6 55.8-.6 0-1.7.1-12.6 0-19.9 0-20.6-.2-53.7-.3-53.8-3.3.3-60.6-.7-60.8-.7-2.6 0-16.1.2-29.6.1-14.8-.1-29.1-.4-29.5-.4 0 0-.1 72.9-.2 75.3 1-.1 33.3.2 64.6 0zm70.6 13.1c-.9-.7-4-2.8-6.3-4.2-1.5-.9-.3 0 0 .5.6 1 2.5 2.3 3.5 3-3.5-.1-7.1.1-10.6.7-.6.1-2.4.4-1.9.4 4.5-.3 13.7-.2 15.3-.4zm-122.7-2.5h-1.6c.3-.4.5-.8.8-1.1.3-.5-.4-.9-.8-.5-.4.5-.8 1.1-1.2 1.6-1.7 0-3.5 0-5.2-.1-.6 0-.6.9 0 .9 1.5.1 3.1.1 4.6.1-.1.1-.1.2-.2.2-.3.5.4.9.8.5.2-.2.3-.5.5-.7h2.2c.7 0 .7-.9.1-.9zM489.1 54.3a5.8 5.8 0 0 0-4 5.1 5.5 5.5 0 0 0 3.7 5.3c2.2.8 4.8-.1 6.2-2 1.2-1.7.5-3.8-.1-5.8-1-3.4-5.8-2.6-5.8-2.6zm-13.5 20.2c8.2 2.5 15.7 3.3 24.2 4.3.2-2.5 1.5-6 0-8.1a7.9 7.9 0 0 0-2.5-2l-3.3-1.9s-5.3 1.7-8-1.1c-.7-.8-2.2-.4-3.6-.3-1.6.2-4.1 1.3-5.1 2.6-1.3 1.9-1.1 4.3-1.7 6.5zm-145 52.1a5.57 5.57 0 0 0-2.9 5.8c.4 2.3 2.4 4.2 4.7 4.5 2.3.3 4.7-1 5.7-3.1.8-1.9-.3-3.8-1.2-5.6-1.7-3.3-6.3-1.6-6.3-1.6zm-9.3 22.4c8.5.8 16 .2 24.5-.4-.3-2.5.3-6.2-1.6-7.9a7.3 7.3 0 0 0-2.9-1.5c-1.3-.4-3.6-1.3-3.6-1.3s-4.9 2.7-8 .4c-.9-.6-2.2 0-3.6.4-1.6.5-3.8 2.1-4.5 3.6-.7 2.1-.1 4.4-.3 6.7zM227.1 21.7c-2.1 1.1-3.3 3.5-2.9 5.8s2.4 4.2 4.7 4.5c2.3.3 4.7-1 5.7-3.1.8-1.9-.3-3.8-1.2-5.6-1.8-3.3-6.3-1.6-6.3-1.6zm-9.3 22.4c8.5.8 16 .2 24.5-.4-.3-2.5.3-6.2-1.6-7.9a7.3 7.3 0 0 0-2.9-1.5c-1.3-.4-3.6-1.3-3.6-1.3s-4.9 2.7-8 .4c-.9-.6-2.2 0-3.6.4-1.6.5-3.8 2.1-4.5 3.6-.8 2.1-.2 4.4-.3 6.7zm-121-5.7a5.57 5.57 0 0 0-2.9 5.8c.4 2.3 2.4 4.2 4.7 4.5s4.7-1 5.7-3.1c.8-1.9-.3-3.8-1.2-5.6-1.7-3.3-6.3-1.6-6.3-1.6zm-9.3 22.4c8.5.8 16 .2 24.5-.4-.3-2.5.3-6.2-1.6-7.9a7.3 7.3 0 0 0-2.9-1.5c-1.3-.4-3.6-1.3-3.6-1.3s-4.9 2.7-8 .4c-.9-.6-2.2 0-3.6.4-1.6.5-3.8 2.1-4.5 3.6-.7 2.1-.1 4.4-.3 6.7zM566.9 196a5.57 5.57 0 0 0-2.9 5.8c.4 2.3 2.4 4.2 4.7 4.5 2.3.3 4.7-1 5.7-3.1.8-1.9-.3-3.8-1.2-5.6-1.8-3.3-6.3-1.6-6.3-1.6zm-9.3 22.4c8.5.8 16 .2 24.5-.4-.3-2.5.3-6.2-1.6-7.9a7.3 7.3 0 0 0-2.9-1.5c-1.3-.4-3.6-1.3-3.6-1.3s-4.9 2.7-8 .4c-.9-.6-2.2 0-3.6.4-1.6.5-3.8 2.1-4.5 3.6-.8 2.2-.2 4.5-.3 6.7zM322 546.9c-2.1 1-3.4 3.4-3.1 5.7.3 2.3 2.2 4.3 4.5 4.7 2.3.4 4.8-.8 5.8-2.9.9-1.9-.1-3.8-1-5.7-1.6-3.3-6.2-1.8-6.2-1.8zm-10.2 22c8.5 1.2 16 .8 24.5.5-.2-2.5.6-6.2-1.3-8-.8-.8-1.8-1.2-2.8-1.6-1.3-.5-3.5-1.4-3.5-1.4s-5 2.5-8 .1c-.8-.7-2.2-.1-3.6.3-1.6.5-3.9 1.9-4.6 3.4-1 2.2-.4 4.5-.7 6.7zm165.1-203.5a5.57 5.57 0 0 0-2.9 5.8c.4 2.3 2.4 4.2 4.7 4.5 2.3.3 4.7-1 5.7-3.1.8-1.9-.3-3.8-1.2-5.6-1.8-3.3-6.3-1.6-6.3-1.6zm-9.3 22.4c8.5.8 16 .2 24.5-.4-.3-2.5.3-6.2-1.6-7.9a7.3 7.3 0 0 0-2.9-1.5c-1.3-.4-3.6-1.3-3.6-1.3s-4.9 2.7-8 .4c-.9-.6-2.2 0-3.6.4-1.6.5-3.8 2.1-4.5 3.6-.8 2.1-.1 4.4-.3 6.7zm29.3 116.8a5.57 5.57 0 0 0-2.9 5.8c.4 2.3 2.4 4.2 4.7 4.5 2.3.3 4.7-1 5.7-3.1.8-1.9-.3-3.8-1.2-5.6-1.7-3.3-6.3-1.6-6.3-1.6zm-9.3 22.4c8.5.8 16 .2 24.5-.4-.3-2.5.3-6.2-1.6-7.9a7.3 7.3 0 0 0-2.9-1.5c-1.3-.4-3.6-1.3-3.6-1.3s-4.9 2.7-8 .4c-.9-.6-2.2 0-3.6.4-1.6.5-3.8 2.1-4.5 3.6-.7 2.1-.1 4.4-.3 6.7zM31.2 374.3a5.57 5.57 0 0 0-2.9 5.8c.4 2.3 2.4 4.2 4.7 4.5 2.3.3 4.7-1 5.7-3.1.8-1.9-.3-3.8-1.2-5.6-1.8-3.3-6.3-1.6-6.3-1.6zm-9.3 22.4c8.5.8 16 .2 24.5-.4-.3-2.5.3-6.2-1.6-7.9a7.3 7.3 0 0 0-2.9-1.5c-1.3-.4-3.6-1.3-3.6-1.3s-4.9 2.7-8 .4c-.9-.6-2.2 0-3.6.4-1.6.5-3.8 2.1-4.5 3.6-.8 2.1-.1 4.4-.3 6.7zm31-226.3a5.57 5.57 0 0 0-2.9 5.8c.4 2.3 2.4 4.2 4.7 4.5 2.3.3 4.7-1 5.7-3.1.8-1.9-.3-3.8-1.2-5.6-1.8-3.3-6.3-1.6-6.3-1.6zm-9.3 22.4c8.5.8 16 .2 24.5-.4-.3-2.5.3-6.2-1.6-7.9a7.3 7.3 0 0 0-2.9-1.5c-1.3-.4-3.6-1.3-3.6-1.3s-4.9 2.7-8 .4c-.9-.6-2.2 0-3.6.4-1.6.5-3.8 2.1-4.5 3.6-.8 2.2-.2 4.5-.3 6.7zm88.8 244.7a5.57 5.57 0 0 0-2.9 5.8c.4 2.3 2.4 4.2 4.7 4.5 2.3.3 4.7-1 5.7-3.1.8-1.9-.3-3.8-1.2-5.6-1.7-3.3-6.3-1.6-6.3-1.6zm-9.3 22.4c8.5.8 16 .2 24.5-.4-.3-2.5.3-6.2-1.6-7.9a7.3 7.3 0 0 0-2.9-1.5c-1.3-.4-3.6-1.3-3.6-1.3s-4.9 2.7-8 .4c-.9-.6-2.2 0-3.6.4-1.6.5-3.8 2.1-4.5 3.6-.7 2.1-.1 4.4-.3 6.7zm51.9 80a5.57 5.57 0 0 0-2.9 5.8c.4 2.3 2.4 4.2 4.7 4.5 2.3.3 4.7-1 5.7-3.1.8-1.9-.3-3.8-1.2-5.6-1.7-3.3-6.3-1.6-6.3-1.6zm-9.2 22.4c8.5.8 16 .2 24.5-.4-.3-2.5.3-6.2-1.6-7.9a7.3 7.3 0 0 0-2.9-1.5c-1.3-.4-3.6-1.3-3.6-1.3s-4.9 2.7-8 .4c-.9-.6-2.2 0-3.6.4-1.6.5-3.8 2.1-4.5 3.6-.8 2.1-.2 4.4-.3 6.7zm220.7-226.7c-8.1-.4-82.7.6-83 .6-4 .1-81.4.4-81.6.4-.8.1-1.8.2-2.6.2 0 .2-.2 1.2.2 1.9.1.3 1.1 1.1 1.7 1.2 6.9 0 48.9.1 49.2.1h51.7c.4 0 62.9-.1 63.9-1.1 1.1-.9.7-3.3.5-3.3z"/>
    <path class="uk-fill-default" opacity=".9" d="M387.2 337.6c-.2 2.7-4.1 2.1-6 2.1-1.8 0-3.6.1-5.5.1-3.1 0-6.3.1-9.4.1-5.7 0-11.4.1-17.1.1-13.3.1-26.6.3-39.9.4l-31 .3c-9.4 0-18.8-.1-28.2-.1-9.3-.1-18.7-.3-28-.6-.7 0-1.3 0-1.9-.4-1.2-.7-.9-1.6-1-2.8h.1c0 2.3 1.1 2.9 3.2 2.9h17.6c13.3 0 26.6-.1 39.9-.1 7.8 0 15.6-.1 23.4-.1 16.2 0 32.4.2 48.6.1 10.2 0 20.4-.2 30.6-.6 1 0 3.1.2 3.7-.8.2-.4.2-.9.2-1.3 0-.1-.1-.9-.2-1-.2-.1-1.1 0-1.4 0-1.8 0-3.5 0-5.3.1-4.8.1-9.7.1-14.5.2-5.8.1-11.6.2-17.4.2-9.6.1-19.1.3-28.7.4-9.7 0-19.3 0-29-.1h-33.6c-9.5 0-19-.1-28.5-.1h-7.4v-.1c15.7-.5 31.3-.6 47-.9 15.7-.3 31.5-.2 47.2-.2 9.2 0 18.4-.1 27.6-.2 5.6 0 11.3-.1 16.9-.1h25.5c.5 0 1.5-.2 1.9 0 .7.5.6 1.9.6 2.5zm-2.5-4c-3.6-2.3-7.2-4.6-10.9-7-2.2-1.4-4.5-2.9-6.7-4.3-1.4-.9-2.5-.9-4.2-1-2.9-.1-5.8-.1-8.7-.1-10 0-20 .2-30.1.4-9.7.2-19.5.2-29.2.2-8.4 0-16.9.1-25.3 0-10.2-.1-20.5-.4-30.7 0 .4-4.4.4-8.9.3-13.3-.2-13.2.3-26.3.3-39.4 0-7 0-14.1-.1-21.1 0-1.6-.5-5 .4-6.3.9-1.3 4.9-.8 6.2-.9 10.5-.3 21.1.5 31.6.2 9-.2 18 0 26.9.2 14.7.2 29.4.6 44.2.7 3.6 0 7.1.1 10.7.1.9 0 2-.1 2.9.1 2.1.3 2.4 1.7 2.4 3.4v21.1c0 17.8.5 35.7.5 53.5h.2l.6-15.3c.3-10.6.2-21.1.3-31.7.1-8.9.1-17.9.2-26.8 0-1 .1-2.2-.2-3.2-.8-2.6-3.5-2.9-5.8-2.9h-9.1c-9.5 0-19 0-28.5-.1H299c-8.6 0-17.2.5-25.7.2-10.2-.3-20.4-.7-30.5-.7-1.2 0-2.5-.1-3.3.8-1 1-.9 2.6-.9 3.8-.1 3-.1 6-.1 9-.1 10.5 0 20.9 0 31.4 0 4-.2 8-.1 12 .1 5.1.4 10.2.6 15.3 0 1.2.1 2.4.1 3.6v4.2c0 .6.1 1.6-.2 1.9-.4.4-1.2.8-1.7 1.1l-3.1 2.2c-5.1 3.6-10.2 7.3-14.8 11.7 0 0 .1 0 .1.1 2.2-1.8 4.4-3.5 6.7-5.1 2.9-2.1 5.8-4 8.7-6 1.1-.7 2.2-1.5 3.3-2.2.8-.6 1-.6 2-.6 5-.1 10-.1 14.9-.2 8.4-.1 16.9-.4 25.3-.5 14.1-.1 28.3.6 42.4.5 7.6 0 15.3-.1 22.9-.2 4.9-.1 9.7-.2 14.6-.2 1.9 0 4.4-.5 6.1.5 2 1.3 4.1 2.5 6.2 3.8 2.4 1.5 4.9 2.9 7.3 4.3 1.3.7 2.5 1.5 3.8 2.2.7.4 2 1.5 2.7 1.4-.5-.1-1.1-.5-1.6-.8zM362.8 310v8.1c0 .3.1.5-.1.7-.3.2-1.4 0-1.7 0-6.2.2-12.3.3-18.5.4-19.7.4-39.3.5-59 .4-9.3 0-18.5-.1-27.8-.1-2.5 0-4.9 0-7.4-.1h-3.8c-.6 0-1.7.2-2.3 0-.5-.2-.2.2-.4-.4-.2-.8 0-2 0-2.8v-10c0-12.8.1-25.6.2-38.4.1-7 .1-14.1.2-21.1 0-.6-.3-2.3 0-2.8.2-.3.5-.2.9-.2 2.4 0 4.7 0 7.1.1 3.1 0 6.1.1 9.2.1 8.4.1 16.8.2 25.1 0 14.4-.3 28.8-.1 43.2.2 11.6.2 23.1.5 34.7.5-.3 6.6-.1 13.2-.1 19.8 0 11.9.2 23.8.2 35.7.3 3.3.3 6.6.3 9.9zm-10.7 8.5c1.6 0 3.1 0 4.7-.1 1.5 0 3.5.2 5-.1.7-.1.4.1.6-.6.1-.3 0-.8 0-1.1v-2.5-4.7c.1-9.4 0-18.7-.1-28.1-.1-12.1-.3-24.2-.3-36.3-12.6.1-25.1 0-37.7-.2-14.8-.2-29.7-.2-44.5-.2-5.9 0-11.9-.2-17.8-.3-6.6-.2-13.1-.2-19.7-.5v2c.1 7.5.1 14.9.1 22.4 0 7.5 0 15 .1 22.6 0 6.3 0 12.5.1 18.8v7.5c0 .4-.1 1.4.1 1.6.2.1 1 0 1.3 0 9.2 0 18.4.1 27.5.1 20.3.1 40.6.1 60.9 0 6.6-.2 13.1-.2 19.7-.3zm19.7 9.9c-1.1-.7-2.1-1.3-3.1-2-.3-.2-1.3-1.2-1.8-1.1.5.2.9.6 1.3.9 1 .7 2.1 1.4 3.1 2.1 2 1.3 4 2.6 5.9 4-11.3 0-22.6.3-33.9.4-19.6.1-39.2.1-58.8.3-18.5.2-36.9.3-55.4.1.4-.3.8-.6 1.1-.9 2-1.6 4-3.2 6.1-4.7.9-.7 1.7-1.4 2.6-2.1.3-.2.6-.6 1-.7.8-.2 2 0 2.8 0 1.3 0 2.5 0 3.8.1 1.6 0 3.3 0 4.9.1 9.9.1 19.9.1 29.8.1 12 0 24-.1 36-.2 7.3-.1 14.7-.1 22-.2h22.9c-.5-.2-1.5-.1-2.1-.1-7.6-.1-15.3-.2-22.9-.2h-21.9c-14.8.1-29.5.2-44.3.2-7.8 0-15.6 0-23.4-.1-2 0-4 0-6-.1-.5 0-1.3-.2-1.8 0s-1 .8-1.4 1.1l-10.1 8h1.6c10.5 0 20.9 0 31.4-.1 7.5 0 15.1-.1 22.6-.1h19.7c8.2 0 16.3-.1 24.5-.1 5.5 0 11.1.1 16.6 0 11-.1 22-.6 33-.6-1.7-1.5-3.8-2.8-5.8-4.1zm-113.4 1.8c12.5 0 25 .1 37.5 0 8.7-.1 17.4-.3 26.1-.4 8.9-.2 17.8.2 26.7-.2-9.9.3-19.9-.2-29.8 0-14 .3-28 .3-42.1.3-12.3 0-24.7.2-37 .2 6.2.1 12.4.1 18.6.1zm64.7-2.6c5-.1 10.1-.5 15.1-.3-6.1-.3-12.3.1-18.4.2-4.7.1-9.5.2-14.3.2 5.8.1 11.7 0 17.6-.1zm11.8 2.6c-.6-1.3-1.2-2.7-1.7-4 .3 1.4.9 2.8 1.7 4zm-10.3-.7c0 .2.4 1.2.3 1.4.1-.2-.1-.8-.1-1-.1-1-.3-2-.6-2.9 0 .8.2 1.7.4 2.5zm4.4-2c.2.9.5 1.7.8 2.6-.1-.9-.4-1.8-.8-2.6zm-77.7 3.9c.8-1.2 1.9-2.2 2.6-3.5-.9 1-2 2.1-2.6 3.5zm4.6-2.6c-1.1-.2-2.4-.1-3.5 0 1.2.2 2.4.1 3.5 0zm-7 .4c-.5.6-1.1 1.1-1.5 1.8.6-.5 1.2-1.1 1.5-1.8zm.2-66.8c.6-1.2 1.1-2.4 1.7-3.6.3-.5 2-4.5 2.3-4.4.1-.1-.3.2-.4.3-.2.3-.4.7-.5 1-.6 1.1-1.1 2.3-1.6 3.4l-1.8 3.6c-.1.3-.5.9-.5 1.2 0 0 0 .4.1.3-.3-.4.5-1.5.7-1.8zm3.3 1.5c1.4-3.1 2.9-6.1 4.1-9.3-.1.1-.3.3-.3.4.1-.1.2-.3.3-.3-2.2 5-4.6 9.9-7 14.9 1.2-1.7 2-3.8 2.9-5.7zm98.7 39.6c.9-1.4 2.5-2.9 3-4.4 0 .1-.1.2-.1.3.1-.1.2-.3.2-.5-1.8 2.3-3.6 4.7-5 7.2.7-.8 1.3-1.7 1.9-2.6zm29.4-78.2c.5-.7.9-1.5 1.4-2.2-.1-.1-.2-.1-.3-.2-1 1.8-2.1 3.6-3.1 5.4.7-.2 1.5-2.1 2-3zm6-9.6c.6-1 1.3-2.1 1.9-3.1-.2-.1-.4-.2-.6-.4-1.1 1.8-2.1 3.6-3.2 5.4.8.7 1.6-1.4 1.9-1.9zm5.4-8.8c.4-.4.8-1.3 1.1-1.8.7-1.1 1.3-2.2 2-3.2-.2-.1-.5-.3-.7-.4-1.1 1.8-2.2 3.6-3.2 5.3.5.4.4.5.8.1zm6.3-10.3c.6-.9 1.1-1.8 1.7-2.7.3-.6.7-1.2 1-1.7.3-.4.7-.7.2-1.1-.6-.4-1.6 1.9-2 2.4-.6.9-1.1 1.8-1.7 2.7.4.1.6.2.8.4zm6.5-10.7c.5-.8 3.4-5.3 3.1-5.4-.2-.2-3.1 4.4-3.6 5.1.1.1.4.2.5.3zm8-12.8c.2-.4.5-.7.7-1.1.2-.4 1.6-1.9 1-2.1l-3.4 5.2c.4.4 1.5-1.6 1.7-2zm7-10.4l2-2.9c-.1-.1-.3-.3-.5-.3l-3.4 5.2c.6.6 1.7-1.6 1.9-2zm6-8.5c.5-.5.8-1.1 1.2-1.7l2.1-3c-.2-.2-.4-.3-.7-.5-1.2 1.7-2.4 3.4-3.5 5.1.6.6.4.6.9.1zM433 144c.5-.6.9-1.2 1.4-1.8.7-.9 1.3-1.8 2-2.7-.3-.2-.5-.4-.8-.6-1.2 1.7-2.5 3.4-3.7 5.1.7.5.6.6 1.1 0zm7.5-9.9c.6-.6 1.1-1.4 1.6-2.1.5-.6 1.3-1.4 1.6-2.1.2-.6.2-.4-.5-1l-3.8 5c.6.6.5.7 1.1.2zm7.6-9.7c.6-.5 1.1-1.3 1.5-1.9.3-.4.6-.7.9-1.1.2-.2 1.3-1.3 1.2-1.5-.1-.8-.7-.4-1-.1-.6.5-1 1.2-1.5 1.8-.7.9-1.4 1.7-2.1 2.6.6.4.5.6 1 .2zm7.5-9.4c.7-.8 1.4-1.6 2-2.5.4-.5 2.2-2.1 1.7-2.6-.5-.4-1.9 1.7-2.3 2.1l-2.1 2.4c.4.3.6.4.7.6zm8.1-9.6c.4-.4 4.1-4.7 4-4.8-.2-.1-3.9 4.1-4.3 4.5 0 .1.2.2.3.3zM274.9 222.2c-.2-.8-.3-1.7-.5-2.5-.1 0-.2.1-.3.1.5 2 1 4 1.5 6.1.2-.8-.5-2.7-.7-3.7zm-2.4-11.3c-.2-1.2-.5-2.3-.7-3.5-.2.1-.4.1-.7.2.5 2 1 4.1 1.4 6.1 1.1.1.1-2.2 0-2.8zm-2.2-9.9c.1-.6-.3-1.5-.5-2-.3-1.2-.6-2.5-.8-3.7-.3.1-.5.1-.8.2.5 2 .9 4.1 1.4 6.1.8-.2.7-.1.7-.6zm-2.6-11.8l-.9-3.8c-.1-.6-.2-2.4-.9-2.2-.7.2.1 2 .2 2.6.3 1.2.5 2.4.8 3.6.2-.1.5-.2.8-.2zm-2.9-12.2c-.3-1.1-.5-2.2-.8-3.3-.1-.4-.4-2.8-.9-2.7-.4.1.3 2.5.4 3 .2 1.1.5 2.1.7 3.2.2 0 .4-.1.6-.2zm-3-12.1c-.1-.6-1.4-6.1-1.6-6-.3.2 1.1 5.5 1.3 6.1.1-.1.2-.1.3-.1zm-3.4-14.7c-.3-1.2-.5-2.4-.8-3.6-.1 0-.3.1-.4.1.5 2 1 4 1.5 6.1.6 0-.2-2.1-.3-2.6zm-2.6-11.7l-.9-4.1c-.2.1-.5.1-.7.2.5 2 1 4 1.5 6.1 1.1 0 .3-1.6.1-2.2zm-2.3-10.5c.1-.6-.3-1.5-.5-2l-.9-3.7c-.3.1-.6.1-.9.2.5 2 1 4 1.5 6.1.8-.2.7-.1.8-.6zm-2.8-12.1c.1-.5-.3-1.4-.5-2-.3-1.3-.6-2.6-.9-3.8-.3.1-.6.2-1 .2.5 2 1 4 1.5 6.1.6-.2.8 0 .9-.5zm-2.8-11.9l-.9-3.6c-.2-.6-.2-1.4-.5-2-.2-.5 0-.5-.6-.4-.6.2-.4.1-.3.7.1.7.3 1.4.5 2.1.3 1.1.5 2.3.8 3.4.3 0 .7-.1 1-.2zm-3-12.1c-.3-1.1-.6-2.3-.8-3.4-.2-.7-.3-1.4-.5-2-.2-.5 0-.6-.5-.5-.5.1-.4.2-.2.8.2.7.3 1.4.5 2.1.3 1.1.5 2.2.8 3.3.2-.2.5-.3.7-.3zm-3-12.2c-.3-1.1-.6-2.2-.8-3.3-.1-.5-.4-2.8-1-2.7-.5.1.3 2.5.4 3 .2 1.1.5 2.1.7 3.2.3 0 .5-.1.7-.2zm-3-12.1c-.5-2-1.1-4-1.6-6h-.1c.4 2 .9 4.1 1.3 6.1.1 0 .2 0 .4-.1zM217.6 250c-.8-.3-1.6-.7-2.4-1-.1.1-.1.3-.1.4 2 .7 3.9 1.4 5.9 2.1-.4-.7-2.5-1.1-3.4-1.5zm-9-3.7c-.7-.3-1.3-.5-2-.8l-3-1.2c-.1.2-.2.5-.3.7 1.9.8 3.9 1.5 5.8 2.2.6-.7.1-.7-.5-.9zm-11.5-4.8c-.7-.3-1.4-.6-2.1-.8-.7-.3-1.4-.6-2.1-.8-.9-.3-.8-.4-1.1.4 1.9.8 3.9 1.6 5.8 2.3.3-.8.3-.7-.5-1.1zm-10.8-4.3c-1.1-.4-2.1-.8-3.2-1.3-.5-.2-2.5-1.3-2.8-.8-.2.5 2.1 1.2 2.6 1.4 1 .4 2 .9 3 1.3.2-.2.3-.4.4-.6zm-11.6-4.7c-.5-.2-5.8-2.4-5.8-2.3-.1.4 5.1 2.4 5.7 2.6.1-.1.1-.2.1-.3zm-14.3-6.1c-1-.4-1.9-.9-2.9-1.3-.1.1-.2.3-.2.4 1.9.8 3.8 1.6 5.8 2.4.4-.5-2.2-1.3-2.7-1.5zm-9.3-4.3c-.6-.3-1.3-.6-1.9-.9-1-.5-2-.9-2.9-1.3-.1.2-.2.5-.3.7 1.9.8 3.8 1.7 5.7 2.5.4-.7-.1-.8-.6-1zm-10.9-5c-.4-.4-1.4-.6-1.9-.9-1.2-.5-2.3-1.1-3.5-1.6-.1.3-.3.6-.4.8 1.9.9 3.8 1.7 5.7 2.6.4-.7.5-.5.1-.9zm-11.5-5.3c-.7-.5-1.6-.8-2.4-1.1-.7-.3-1.7-1-2.4-1.1-.6-.1-.5-.1-.8.7 1.9.9 3.8 1.8 5.7 2.6.4-.8.5-.7-.1-1.1zm-10.8-5.1c-1-.5-1.9-.9-2.9-1.4l-1.8-.9c-.6-.3-.8-.6-1.1 0-.3.6.3.6.8.9.6.3 1.2.6 1.7.8.9.5 1.9.9 2.8 1.4.2-.2.4-.5.5-.8zm-11.3-5.3l-3.3-1.5c-.5-.2-2.2-1.4-2.5-.8-.2.5 1.8 1.2 2.2 1.4 1.1.5 2.2 1.1 3.3 1.6.1-.2.2-.5.3-.7zm-11.3-5.3c-.6-.3-1.3-.6-1.9-.9 0 .1-.1.2-.1.2 1.1.3 2.2.6 3.3 1v-.1c-.9-.3-1.7-.6-2.6-.9-.2-.1-1-.4-.7 0 .3.4 1.3.7 1.8.9.1 0 .1-.1.2-.2zm230.9 24.5c.1-.7.2-1.4.4-2.1-.2 0-.5-.1-.7-.1l-.6 6.2c.6-.5.7-3 .9-4zm1.2-8.2l.3-3.8c0-.5.4-2.4 0-2.5-.4 0-1.1 5.6-1.1 6.2.2 0 .5 0 .8.1zm1.4-14.2l.6-4.5c-.3 0-.5 0-.8-.1-.1 2.1-.2 4.2-.4 6.2.6.3.5-1.1.6-1.6zm1.1-10.7c.2-.2.2-1.5.2-1.8.1-.8.1-1.6.2-2.3 0-.3.3-1.9.1-2.1 0-.1-.7-.1-.8-.1-.3.2-.3 1.1-.3 1.5l-.3 4.7c.2 0 .7.2.9.1zm.7-12.5v-4.7h-.1c-.2 1.5-.3 3.1-.5 4.7h.6zm62 87.2c1.1-.2 2.1-.5 3.2-.7 0-.1-.1-.3-.1-.4-2 .6-4 1.1-6 1.7.4.2 2.3-.5 2.9-.6zm11.7-2.9l3.6-.9c-.1-.2-.1-.5-.2-.7-2 .6-4 1.1-6 1.7 0 1.1 2 .1 2.6-.1zm10-2.6c.6 0 1.4-.4 2-.5 1.2-.3 2.4-.7 3.7-1-.1-.3-.2-.5-.2-.8-2 .6-4 1.1-6 1.7.1.6-.1.6.5.6zm11.6-3.3l4.1-1.2c.5-.2 2-.3 1.8-.9-.2-.6-1.6.1-2.1.2-1.3.4-2.7.7-4 1.1.1.3.2.6.2.8zm12-3.6l3-.9c.4-.1 3-.8 2.9-1-.2-.3-5.4 1.3-6.1 1.5.1.1.2.3.2.4zm14.9-4.4l3-.9c0-.1-.1-.2-.1-.3l-6 1.8c.2.5 2.6-.5 3.1-.6zm11.7-3.4c1.1-.3 2.3-.6 3.4-1 0-.2-.1-.4-.2-.6l-6 1.8c0 1 2.3 0 2.8-.2zm9.7-2.7c.6 0 1.4-.4 2-.6 1.2-.3 2.4-.7 3.7-1-.1-.3-.2-.5-.2-.8l-6 1.8c.2.7 0 .6.5.6zm12.1-3.5c.6 0 1.4-.4 2-.6 1.2-.3 2.4-.7 3.7-1l-.3-.9-6 1.8c.2.7 0 .7.6.7zm12.1-3.4c.8-.1 1.6-.4 2.3-.7.4-.1.9-.2 1.3-.4.3-.1 1.8-.3 1.9-.5 0-.1-.2-.8-.2-.9-.1-.1-.2 0-.4 0-.7 0-1.6.5-2.3.7l-3.3.9c.2.9 0 .9.7.9zm11.5-3.3c1.1-.3 2.3-.6 3.4-1 .7-.2 1.4-.3 2-.6.5-.2.6 0 .5-.6-.1-.5-.3-.3-.8-.2l-2.1.6-3.3.9c.2.3.2.6.3.9zm12-3.4l3.3-.9c.5-.1 2.8-.5 2.7-1-.1-.5-2.5.4-3 .5-1.1.3-2.1.5-3.2.8.1.1.2.3.2.6zm12-3.4l4.3-1.2v-.1c-1.4.3-2.9.7-4.3 1v.3zM196 174.5c.6.8 1.2 1.6 1.8 2.3.1-.1.4-.3.5-.4-1.4-1.6-2.7-3.1-4.2-4.7.1.8 1.4 2.2 1.9 2.8zm6.5 8.3l1.5 1.8c.2.3 1.4 1.9 1.7 1.9 1.2 0-.3-1.4-.5-1.7-.9-1.2-1.9-2.4-2.9-3.6-.8.7-.5.7.2 1.6zm7.3 8.5c1.3 1.6 2.6 3.2 3.9 4.9.1 0 .2-.2.3-.2-1.4-1.6-2.7-3.2-4-4.8 0 0-.1 0-.2.1zm7.9 10c.1.3.7.8.9 1.1.3.4.6.8.9 1.1.6.8 1.3 1.6 1.9 2.4.2-.2.5-.4.7-.6-1.3-1.6-2.7-3.2-4-4.8-.4.4-.5.4-.4.8zm7.6 9.6c.7.8 1.3 1.6 2 2.4.5.6 1 1.1 1.4 1.7.4.5.4.8.9.4s.1-.5-.2-1c-.5-.6-.9-1.2-1.4-1.8-.6-.8-1.3-1.6-1.9-2.4a5 5 0 0 0-.8.7zm8.1 9.5c.5.5.9 1 1.4 1.5.1-.1.1-.2.2-.2-.7-.3-1.4-.7-2.1-1v.1c.9.5 1.8 1.1 2.7 1.6l-1.7-2.3c-.2 0-.4.2-.5.3zM89.9 277.8l3.6.6c0-.1.1-.3.1-.4-2.1-.2-4.1-.5-6.2-.8.5.3 1.8.4 2.5.6zm11.4 1.7c.6.1 1.3.2 1.9.2l2.8.3c0-.3.1-.5.1-.8-2.1-.2-4.1-.4-6.2-.7-.5 1.1.7.9 1.4 1zm10.8 1.3l2.7.3c.5.1 1 .1 1.5.2.6.1 2 .6 2.1-.2.1-.7-1.4-.6-2-.6-.5-.1-1-.1-1.5-.2l-2.7-.3c0 .2-.1.5-.1.8zm12.4 1.2c.8.1 6.2.7 6.2.3 0-.4-5.4-.8-6.2-.9v.6zm12.5 1.1l6.2.6v-.3l-6.2-.6v.3zm15.1 1.6c1.2.1 2.3.3 3.5.4 0-.2 0-.5.1-.7-2.1-.2-4.2-.3-6.2-.5-.4.9 2 .8 2.6.8zm10.3 1.2c.8.1 1.5.2 2.3.2l3.3.3c0-.3.1-.6.1-.9l-6.2-.6c-.1.9-.2.9.5 1zm11.8 1.1c.1.2 1.2.2 1.5.2 1.6.2 3.1.3 4.7.4 0-.3.1-.7.1-1l-6.2-.6c0 .3-.2.8-.1 1zm12.5 1.2l3.9.3c.7.1 2.3.6 2.4-.2.1-.6.1-.2-.5-.5-.6-.2-1.5-.2-2.1-.2-1.2-.1-2.4-.3-3.6-.4-.1.4-.1.7-.1 1zm12.4 1.1l3.4.3c.5 0 2.8.5 2.9 0 0-.5-2.5-.5-2.9-.6-1.1-.1-2.2-.2-3.2-.4-.1.2-.2.4-.2.7zm12.5.9c.7 0 1.3.1 2 .1v-.1l-2-.3v.3zm195.4 6.1l3.2.3c0-.1.1-.4 0-.5l-6.2-.3c.4.5 2.4.4 3 .5zm10.3 1c.7.1 1.4.1 2.1.2l3.2.3c0-.3 0-.5.1-.8-2.1-.2-4.2-.3-6.2-.4-.1.8 0 .6.8.7zm11.6 1.1c1.5.1 3 .2 4.5.4.6 0 1.7.4 1.8-.2.1-.7-1.1-.5-1.7-.5-1.5-.1-3-.3-4.5-.4-.1.1-.1.4-.1.7zm12.4.9c1 .1 2.1.1 3.1.2.4 0 3.1.4 3.1.1 0-.4-5.5-.7-6.2-.8 0 .1.1.3 0 .5zm15.6 1.4l3.1.3c0-.1.1-.3 0-.4-2.1-.2-4.1-.3-6.2-.5-.1.5 2.5.5 3.1.6zm10.9 1.2c.6.1 1.3.1 1.9.2l2.8.3c0-.3.1-.5.1-.8-2.1-.2-4.1-.4-6.2-.5-.5.9.7.7 1.4.8zm11.2 1.2c.5.2 1.5.2 2.1.2 1.3.1 2.5.3 3.8.4 0-.3.1-.7.1-1l-6.2-.6c-.2.8-.3.8.2 1zm12.1 1.2l3.7.3c.7.1 1.4.2 2.1.2.5 0 .5.2.6-.4.1-.6 0-.4-.6-.5-.7-.1-1.4-.1-2.1-.2-1.2-.1-2.3-.2-3.5-.4-.2.3-.2.7-.2 1zm12.4 1.1l3.2.3c.6 0 3 .6 3.1-.1.1-.6-2.4-.6-3-.7l-3.1-.3c-.2.3-.2.5-.2.8zm12.5.9l5 .3v-.1l-5-.6v.4zm-111.5 35c1.1.5 2.2 1.1 3.3 1.6.1-.2.2-.5.3-.7-1.6-.6-4.3-2.3-6-1.3.7 0 1.5 0 2.4.4zm9 4.1c1.9.7 3.9 1.5 5.8 2.3 0-.1.1-.2.1-.3-1.9-.8-3.8-1.8-5.6-2.7-.1.3-.2.5-.3.7zm11.7 5.2c.2.3 1 .5 1.3.6.4.2.9.4 1.3.6.9.4 1.9.9 2.8 1.3.1-.3.3-.6.4-.9-1.9-.8-3.8-1.6-5.8-2.4-.2.5-.3.5 0 .8zm11.1 5c.7.3 5.7 2.5 5.9 2.1.2-.4-4.8-2.6-5.5-2.9a3 3 0 0 0-.4.8zm-54.1 10.1c.5 0 1 .2 1.4.4 1 .5 1.8 1.4 2.5 2.3.1-.1.2-.2.3-.2-1.1-1.3-3.6-3.8-5.3-2.1.3-.1.8-.4 1.1-.4zm9.5 9.6l2.3 2.9c.2-.1.4-.3.6-.4-1.3-1.6-2.7-3.2-4-4.8-1.1.4.7 1.8 1.1 2.3zm6.4 8c.2.5.9 1.2 1.3 1.6l2.4 3c.2-.2.4-.3.7-.5-1.3-1.6-2.6-3.2-3.9-4.9-.7.5-.7.3-.5.8zm7.5 9.5l2.7 3.3c.3.4 1 1.7 1.5 1.3.5-.4-.7-1.4-1-1.9-.8-1.1-1.7-2.2-2.5-3.3-.3.3-.5.5-.7.6zm7.8 9.8c.5.7 3.8 4.9 4 4.8.2-.2-3.1-4.4-3.6-5.1-.1 0-.2.2-.4.3zm9.7 12.2l1.9 2.5c.1-.1.2-.1.3-.2-1.3-1.6-2.5-3.3-3.8-4.9-.6.3 1.2 2.2 1.6 2.6zm7.2 9.7c.7.9 1.4 1.9 2.1 2.8.1-.1.4-.2.5-.4-1.3-1.6-2.6-3.3-3.8-4.9-.9.4.9 2.1 1.2 2.5zm6.1 8.3c.3.6.8 1.1 1.2 1.7.7 1 1.5 2 2.2 3 .2-.2.4-.3.7-.5l-3.8-5c-.6.4-.5.2-.3.8zm7.4 9.9c.2.6.9 1.2 1.2 1.7.8 1 1.5 2 2.3 3.1.3-.2.5-.4.8-.6l-3.8-5c-.6.4-.7.3-.5.8zm7.3 9.7c-.1.3.8 1.3 1 1.5.5.6.9 1.3 1.4 1.9.2.3 1 1.6 1.2 1.7.1 0 .6-.4.7-.5.1-.3-.5-1-.8-1.4-.9-1.3-1.9-2.5-2.8-3.8-.2.2-.7.4-.7.6zm7.4 10.1c.7.9 1.4 1.9 2.1 2.8.4.6.8 1.2 1.3 1.7.3.4.2.6.7.2.5-.3.3-.4-.1-.8-.4-.6-.8-1.2-1.3-1.7-.7-.9-1.3-1.8-2-2.7-.2.1-.5.3-.7.5zm7.5 9.9c.9 1.1 1.7 2.3 2.6 3.4.3.4 1 1.7 1.4 1.4.5-.3-.7-1.5-1-1.9-.8-1.1-1.6-2.2-2.4-3.4-.2.3-.4.4-.6.5zm7.5 10c.8 1.1 1.7 2.2 2.5 3.3l.2-.2c-.6-.4-1.1-.9-1.7-1.3l-.1.1 2.3 2-2.9-4.1c-.1 0-.2.1-.3.2zM348.8 377c.3 1.2.6 2.4.9 3.5.1 0 .4-.1.5-.1-.6-2-1.3-4-1.9-5.9-.2.5.3 1.7.5 2.5zm2.7 9.5c.7 2 1.4 3.9 2 5.9.9-.3.7-.4.4-1.3-.3-.7-.5-1.5-.8-2.2-.3-.9-.7-1.8-1-2.7l-.6.3zm4.3 11.7c.5 1.1.9 2.2 1.4 3.3.2.5.8 2.6 1.3 2.4.6-.2-.5-2.1-.7-2.6-.4-1.1-.9-2.2-1.3-3.3-.2 0-.5.1-.7.2zm5 11.5c.9 1.9 1.7 3.8 2.5 5.7.5-.1-.3-1.3-.4-1.7-.6-1.4-1.2-2.7-1.8-4.1-.1 0-.2 0-.3.1zm6.1 13.9c.5 1.1.9 2.2 1.4 3.2.2 0 .4-.2.6-.3l-2.7-5.7c-.8.3.5 2.4.7 2.8zm4 9.3c.1.6.6 1.4.8 1.9.5 1.2 1 2.3 1.5 3.5.3-.1.6-.2.8-.4-.9-1.9-1.7-3.8-2.6-5.7-.6.4-.6.2-.5.7zm4.8 11.4c0 .5.6 1.5.8 1.9.3.8.7 1.6 1 2.4.2.4.3 1.1.7 1.1.2 0 .6-.2.8-.3-.8-1.9-1.6-3.9-2.4-5.8-.6.3-.8.3-.9.7zm4.8 12c.2.7.5 1.4.8 2.1.2.4.3.8.5 1.3.1.3.4 1.7.7 1.8.1 0 .6-.2.7-.2 0-.1-.2-.5-.2-.6-.2-.8-.5-1.5-.8-2.2-.4-1-.7-2-1.1-3.1-.8.3-.8.1-.6.9zm4 11.1c.6 2 1.3 4 1.9 5.9h.1c-.5-2-1-4-1.6-6.1-.1.1-.2.2-.4.2zm-75.7-96l.3 2.6h.4l-.9-6.2c-.5.6.1 2.6.2 3.6zm1.3 11.3c.1 1.2.3 2.4.4 3.6.2 0 .5-.1.7-.1-.3-2.1-.6-4.1-.8-6.2-1.1-.1-.4 2.1-.3 2.7zm1.1 10.2c-.1.6.2 1.5.2 2.1.1 1.3.3 2.5.4 3.8.3 0 .6-.1.8-.1-.3-2.1-.5-4.1-.8-6.2-.6 0-.5-.1-.6.4zm1.4 12c.1 1.1.3 2.1.4 3.2l.3 2c.1.5-.1 1 .5 1 .6-.1.3-.7.2-1.2-.1-.6-.1-1.3-.2-1.9l-.3-3.1h-.9zm1.6 12.4c.1.8.6 6.2 1 6.2s-.3-5.4-.4-6.2h-.6zm1.5 12.4c.2 2.1.4 4.1.7 6.2h.3c-.2-2.1-.4-4.1-.7-6.2h-.3zm1.5 15.2l.3 3.5c.1 0 .4 0 .5-.1-.2-2.1-.5-4.1-.7-6.2-.7-.1-.1 2.3-.1 2.8zm1 11.8c.1 1.4.2 2.8.4 4.1.3 0 .5-.1.8-.1-.2-2.1-.4-4.1-.7-6.2-1.1-.2-.5 1.5-.5 2.2zm1 10.7c-.1.6.1 1.5.2 2.1l.3 3.8c.3 0 .6-.1.9-.1l-.6-6.2c-.7 0-.7-.1-.8.4zm1.1 12.1c-.2.2 0 1.2.1 1.6.1 1.6.3 3.1.4 4.7.3 0 .7-.1 1-.1l-.6-6.2c-.2-.1-.8-.1-.9 0zm1 12.4l.3 3.9c0 .5 0 1.3.2 1.8.2.6-.1.5.5.5.6-.1.3.1.4-.6.1-.6-.1-1.5-.2-2.1l-.3-3.6c-.2.1-.5.1-.9.1zm1.2 12.5l.3 3.5c.1.6-.1 2.7.6 2.7.7-.1.2-2.2.1-2.9-.1-1.1-.2-2.3-.2-3.4-.3 0-.6 0-.8.1zm1.1 12.4l.3 3.1c0 .4.1 3.1.5 3.1.4-.1-.2-5.6-.2-6.2-.2-.1-.5 0-.6 0zm-118.6-14c-.1-.1-.7-.5-.8-.4-.3 0-1.3 2.4-1.5 2.7-.3.5-1.6 2.3-1.5 2.7 0 .1.7.4.8.5 1-1.8 2-3.7 3-5.5zm5.9-11c-.1-.1-.7-.5-.8-.4-.3.1-1.3 2.4-1.5 2.8-.2.5-1.6 2.3-1.5 2.8 0 .1.7.4.8.4 1-1.9 2-3.8 3-5.6zm5.7-11.1c-.1-.1-.7-.5-.8-.4-.3.1-1.3 2.5-1.4 2.8-.2.5-1.6 2.3-1.4 2.8.1.1.7.4.8.4.9-1.9 1.9-3.7 2.8-5.6zm5.6-11.2a3 3 0 0 0-.8-.4c-.3.1-1.2 2.5-1.4 2.8-.2.5-1.6 2.4-1.4 2.8.1.1.7.3.8.4 1-1.8 1.9-3.7 2.8-5.6zm5.5-11.2a3 3 0 0 0-.8-.4c-.3.1-1.2 2.5-1.3 2.8-.2.5-1.5 2.4-1.4 2.8.1.1.7.3.8.4.9-1.9 1.8-3.7 2.7-5.6zM233 447c-.1-.1-.7-.4-.9-.4-.3.1-1.2 2.5-1.3 2.8-.2.5-1.5 2.4-1.3 2.8.1.1.7.3.8.4.9-1.9 1.8-3.7 2.7-5.6zm5.1-11.4c-.5-.2-.6-.4-1-.1-.5.4-.9 2.1-1.2 2.7-.1.3-1.4 2.4-1.2 2.7.1.1.7.3.9.4.8-1.9 1.7-3.8 2.5-5.7zm4.8-10.8c.1-.2.3-.5.2-.6 0-.1-.7-.4-.8-.4-.2.1-.5 1.1-.6 1.3-.4.8-.7 1.6-1.1 2.4-.2.3-.9 1.7-.8 2 .1.1.6.3.8.4.8-1.7 1.6-3.4 2.3-5.1zm4.7-10.6c.2-.4.7-1.2.5-1.5-.1-.2-.5-.2-.7-.3-.6 1.4-1.3 2.9-1.9 4.3-.2.4-.7 1.2-.5 1.5.1.1.5.2.7.3.6-1.5 1.3-2.9 1.9-4.3zm5.2-11.4c.2-.4.7-1.2.5-1.4-.1-.2-.5-.2-.7-.3-.9 1.9-1.7 3.8-2.6 5.7.3.1.6.3.9.4.6-1.6 1.2-3 1.9-4.4zm5.3-11.3c.2-.4.7-1.1.5-1.4-.1-.2-.5-.3-.7-.3-.9 1.9-1.8 3.7-2.7 5.6.3.1.6.3.8.4.7-1.5 1.4-2.9 2.1-4.3zm5.6-11.2c.2-.4.8-1.1.6-1.4-.1-.2-.5-.3-.7-.4-1 1.8-1.9 3.7-2.9 5.6.3.1.6.3.8.4.8-1.4 1.5-2.8 2.2-4.2zm4.8-8.9c.3-.5.5-1.3 1-1.6.5-.4 1.7.4 1.5-.6-.3-1.2-2-.3-2.4.2-.8 1.1-1.4 2.5-2 3.6.3.2.5.3.8.5.3-.7.7-1.4 1.1-2.1zm1.6-2.2zm-96.4 45.7c.3-.3 1.1-.8 1.1-1.1 0-.2-.4-.4-.5-.6-1.6 1.4-3.1 2.8-4.7 4.1.2.2.4.5.6.7 1.1-1.1 2.3-2.1 3.5-3.1zm10.5-9.3c-.1-.1-.5-.7-.6-.7-.3-.1-2.1 1.8-2.3 2.1-.4.3-2.3 1.6-2.3 2.1 0 .2.5.6.6.7 1.5-1.5 3.1-2.9 4.6-4.2zm9.3-8.4c-.1-.1-.5-.7-.6-.7-.3-.1-2 1.8-2.3 2-.4.4-2.4 1.7-2.4 2.1 0 .2.5.6.6.7 1.6-1.3 3.2-2.7 4.7-4.1zm9.3-8.4c-.1-.1-.5-.7-.6-.7-.3-.1-2 1.8-2.3 2.1-.4.4-2.3 1.7-2.3 2.1 0 .2.5.6.6.7 1.5-1.4 3.1-2.8 4.6-4.2zm9.1-8.5c-.3-.4-.4-.6-.8-.5-.4.1-1.5 1.5-1.8 1.7-.3.2-2.6 2.1-2.6 2.4 0 .2.5.5.6.7 1.6-1.4 3.1-2.8 4.6-4.3zm7.7-7.4c.3-.3 1.3-1 1.2-1.4 0-.2-.4-.5-.5-.6-1.5 1.4-3 2.9-4.5 4.3l.7.7c1-1 2.1-2 3.1-3zm9.4-8.9c.2-.2 1-.7 1-.9 0-.2-.5-.6-.6-.7-1.6 1.3-3.1 2.8-4.7 4.2.2.2.4.5.6.7 1.3-1.1 2.5-2.2 3.7-3.3zM74.8 374.2c.4-.2 1.3-.4 1.4-.7 0-.2-.2-.5-.3-.7-1.9.8-3.8 1.6-5.8 2.4.1.3.2.6.4.9 1.4-.7 2.9-1.3 4.3-1.9zm11.6-4.8c.4-.2 1.3-.4 1.4-.7 0-.2-.2-.5-.3-.7-1.9.8-3.9 1.6-5.8 2.4.1.3.2.6.4.9 1.4-.7 2.8-1.3 4.3-1.9zm11.6-4.6c.4-.2 1.3-.4 1.4-.7 0-.2-.2-.5-.3-.7-1.9.7-3.9 1.5-5.8 2.3l.3.9c1.4-.6 2.9-1.2 4.4-1.8zm11.6-4.4c.4-.1 1.3-.3 1.4-.7 0-.2-.2-.5-.3-.7-2 .7-3.9 1.4-5.9 2.2l.3.9c1.6-.6 3.1-1.1 4.5-1.7zm11.8-4.2c.4-.1 1.3-.3 1.4-.7 0-.2-.2-.6-.3-.7-2 .7-3.9 1.4-5.9 2.1l.3.9c1.5-.5 3-1.1 4.5-1.6zm11.8-3.9c.4-.1 1.3-.3 1.4-.6 0-.2-.2-.6-.2-.7-2 .6-4 1.3-5.9 1.9l.3.9c1.5-.6 2.9-1.1 4.4-1.5zm11.9-3.8c.4-.1 1.3-.3 1.4-.6.1-.2-.2-.6-.2-.7l-6 1.8.3.9c1.5-.5 3-.9 4.5-1.4zm12-3.5c.4-.1 1.3-.2 1.5-.6.1-.2-.2-.6-.2-.8-2 .6-4 1.1-6 1.7l.3.9c1.4-.3 2.9-.8 4.4-1.2zm12-3.2c.4-.1 1.4-.2 1.5-.5.1-.2-.1-.6-.2-.8-2 .5-4 1.1-6 1.6.1.3.2.6.2.9 1.5-.5 3-.9 4.5-1.2zm12.1-3.1c.4-.1 1.4-.2 1.5-.5.1-.2-.1-.6-.2-.8-2 .5-4 1-6.1 1.5.1.3.2.6.2.9 1.6-.3 3.1-.7 4.6-1.1zm12.2-2.8c.4-.1 1.4-.2 1.5-.5.1-.2-.1-.6-.2-.8-2 .4-4.1.9-6.1 1.4.1.3.1.6.2.9 1.5-.3 3.1-.7 4.6-1z"/>
</svg>